<svg width="28" height="43" viewBox="0 0 28 43" fill="none" xmlns="http://www.w3.org/2000/svg">
<rect width="5" height="7" transform="matrix(0.866025 0.5 -0.866025 0.5 6.06201 1.70007)" fill="#FFD54F"/>
<rect width="5" height="25" transform="matrix(0.866025 0.5 0 1 0 5.20007)" fill="#FFB300"/>
<rect width="7" height="25" transform="matrix(0.866025 -0.5 0 1 4.33008 7.70007)" fill="#FF6F00"/>
<rect width="15" height="7" transform="matrix(0.866025 0.5 -0.866025 0.5 10.3618 26.2)" fill="#FFD54F"/>
<rect width="15" height="5" transform="matrix(0.866025 0.5 0 1 4.2998 29.7)" fill="#FFB300"/>
<rect width="7" height="5" transform="matrix(0.866025 -0.5 0 1 17.29 37.2)" fill="#FF6F00"/>
<rect width="15" height="7" transform="matrix(0.866025 0.5 -0.866025 0.5 10.062 0)" fill="#FFD54F"/>
<rect width="15" height="5" transform="matrix(0.866025 0.5 0 1 4 3.5)" fill="#FFB300"/>
<rect width="7" height="5" transform="matrix(0.866025 -0.5 0 1 16.9902 11)" fill="#FF6F00"/>
<rect width="5" height="7" transform="matrix(0.866025 0.5 -0.866025 0.5 23.062 10.7001)" fill="#FFD54F"/>
<rect width="5" height="25" transform="matrix(0.866025 0.5 0 1 17 14.2001)" fill="#FFB300"/>
<rect width="7" height="25" transform="matrix(0.866025 -0.5 0 1 21.3301 16.7001)" fill="#FF6F00"/>
</svg>
