<svg width="20" height="43" viewBox="0 0 20 43" fill="none" xmlns="http://www.w3.org/2000/svg">
<rect width="5" height="7" transform="matrix(0.866025 0.5 -0.866025 0.5 7.06201 3)" fill="#FFD54F"/>
<rect width="5" height="5" transform="matrix(0.866025 0.5 0 1 1 6.5)" fill="#FFB300"/>
<rect width="7" height="5" transform="matrix(0.866025 -0.5 0 1 5.33008 9)" fill="#FF6F00"/>
<rect width="15" height="7" transform="matrix(0.866025 0.5 -0.866025 0.5 6.06201 26.9998)" fill="#FFD54F"/>
<rect width="15" height="5" transform="matrix(0.866025 0.5 0 1 0 30.4998)" fill="#FFB300"/>
<rect width="7" height="5" transform="matrix(0.866025 -0.5 0 1 12.9902 37.9998)" fill="#FF6F00"/>
<rect width="5" height="7" transform="matrix(0.866025 0.5 -0.866025 0.5 11.062 0)" fill="#FFD54F"/>
<rect width="5" height="30" transform="matrix(0.866025 0.5 0 1 5 3.5)" fill="#FFB300"/>
<rect width="7" height="30" transform="matrix(0.866025 -0.5 0 1 9.33008 6)" fill="#FF6F00"/>
</svg>
