<svg width="26" height="44" viewBox="0 0 26 44" fill="none" xmlns="http://www.w3.org/2000/svg">
<rect width="20" height="7" transform="matrix(0.866025 0.5 -0.866025 0.5 6.06201 25.4001)" fill="#FFD54F"/>
<rect width="20" height="5" transform="matrix(0.866025 0.5 0 1 0 28.9001)" fill="#FFB300"/>
<rect width="7" height="5" transform="matrix(0.866025 -0.5 0 1 17.3203 38.9001)" fill="#FF6F00"/>
<rect width="5" height="7" transform="matrix(0.866025 0.5 -0.866025 0.5 6.06201 17.4001)" fill="#FFD54F"/>
<rect width="5" height="8" transform="matrix(0.866025 0.5 0 1 0 20.9001)" fill="#FFB300"/>
<rect width="7" height="8" transform="matrix(0.866025 -0.5 0 1 4.33008 23.4001)" fill="#FF6F00"/>
<rect width="5" height="7" transform="matrix(0.866025 0.5 -0.866025 0.5 6.66162 3)" fill="#FFD54F"/>
<rect width="5" height="3" transform="matrix(0.866025 0.5 0 1 0.599609 6.5)" fill="#FFB300"/>
<rect width="7" height="3" transform="matrix(0.866025 -0.5 0 1 4.92969 9)" fill="#FF6F00"/>
<rect width="13" height="7" transform="matrix(0.866025 0.5 -0.866025 0.5 10.2944 16.4)" fill="#FFD54F"/>
<rect width="13" height="5" transform="matrix(0.866025 0.5 0 1 4.23242 19.9)" fill="#FFB300"/>
<rect width="7" height="5" transform="matrix(0.866025 -0.5 0 1 15.4907 26.4)" fill="#FF6F00"/>
<rect width="13" height="7" transform="matrix(0.866025 0.5 -0.866025 0.5 9.92432 0)" fill="#FFD54F"/>
<rect width="13" height="5" transform="matrix(0.866025 0.5 0 1 3.8623 3.5)" fill="#FFB300"/>
<rect width="7" height="5" transform="matrix(0.866025 -0.5 0 1 15.1206 10)" fill="#FF6F00"/>
<rect width="5" height="7" transform="matrix(0.866025 0.5 -0.866025 0.5 21.062 9.40015)" fill="#FFD54F"/>
<rect width="5" height="15" transform="matrix(0.866025 0.5 0 1 15 12.9001)" fill="#FFB300"/>
<rect width="7" height="15" transform="matrix(0.866025 -0.5 0 1 19.3301 15.4001)" fill="#FF6F00"/>
</svg>
