<svg width="26" height="43" viewBox="0 0 26 43" fill="none" xmlns="http://www.w3.org/2000/svg">
<rect width="5" height="7" transform="matrix(0.866025 0.5 -0.866025 0.5 6.06201 23.8015)" fill="#FFD54F"/>
<rect width="5" height="3" transform="matrix(0.866025 0.5 0 1 0 27.3015)" fill="#FFB300"/>
<rect width="7" height="3" transform="matrix(0.866025 -0.5 0 1 4.33008 29.8015)" fill="#FF6F00"/>
<rect width="13" height="7" transform="matrix(0.866025 0.5 -0.866025 0.5 10.3618 27.8)" fill="#FFD54F"/>
<rect width="13" height="5" transform="matrix(0.866025 0.5 0 1 4.2998 31.3)" fill="#FFB300"/>
<rect width="7" height="5" transform="matrix(0.866025 -0.5 0 1 15.5581 37.8)" fill="#FF6F00"/>
<rect width="13" height="7" transform="matrix(0.866025 0.5 -0.866025 0.5 10.3618 12.9)" fill="#FFD54F"/>
<rect width="13" height="5" transform="matrix(0.866025 0.5 0 1 4.2998 16.4)" fill="#FFB300"/>
<rect width="7" height="5" transform="matrix(0.866025 -0.5 0 1 15.5581 22.9)" fill="#FF6F00"/>
<rect width="5" height="7" transform="matrix(0.866025 0.5 -0.866025 0.5 21.562 24.3002)" fill="#FFD54F"/>
<rect width="5" height="10" transform="matrix(0.866025 0.5 0 1 15.5 27.8002)" fill="#FFB300"/>
<rect width="7" height="10" transform="matrix(0.866025 -0.5 0 1 19.8301 30.3002)" fill="#FF6F00"/>
<rect width="5" height="7" transform="matrix(0.866025 0.5 -0.866025 0.5 7.16162 3)" fill="#FFD54F"/>
<rect width="5" height="3" transform="matrix(0.866025 0.5 0 1 1.09961 6.5)" fill="#FFB300"/>
<rect width="7" height="3" transform="matrix(0.866025 -0.5 0 1 5.42969 9)" fill="#FF6F00"/>
<rect width="13" height="7" transform="matrix(0.866025 0.5 -0.866025 0.5 10.4243 0)" fill="#FFD54F"/>
<rect width="13" height="5" transform="matrix(0.866025 0.5 0 1 4.3623 3.5)" fill="#FFB300"/>
<rect width="7" height="5" transform="matrix(0.866025 -0.5 0 1 15.6206 10)" fill="#FF6F00"/>
<rect width="13" height="7" transform="matrix(0.866025 0.5 -0.866025 0.5 10.4243 0)" fill="#FFD54F"/>
<rect width="13" height="5" transform="matrix(0.866025 0.5 0 1 4.3623 3.5)" fill="#FFB300"/>
<rect width="7" height="5" transform="matrix(0.866025 -0.5 0 1 15.6206 10)" fill="#FF6F00"/>
<rect width="5" height="7" transform="matrix(0.866025 0.5 -0.866025 0.5 21.562 9.40015)" fill="#FFD54F"/>
<rect width="5" height="10" transform="matrix(0.866025 0.5 0 1 15.5 12.9001)" fill="#FFB300"/>
<rect width="7" height="10" transform="matrix(0.866025 -0.5 0 1 19.8301 15.4001)" fill="#FF6F00"/>
<rect width="5" height="7" transform="matrix(0.866025 0.5 -0.866025 0.5 21.562 9.40015)" fill="#FFD54F"/>
<rect width="5" height="10" transform="matrix(0.866025 0.5 0 1 15.5 12.9001)" fill="#FFB300"/>
<rect width="7" height="10" transform="matrix(0.866025 -0.5 0 1 19.8301 15.4001)" fill="#FF6F00"/>
</svg>
