<svg width="23" height="43" viewBox="0 0 23 43" fill="none" xmlns="http://www.w3.org/2000/svg">
<rect width="5" height="7" transform="matrix(0.866025 0.5 -0.866025 0.5 6.06201 0)" fill="#FFD54F"/>
<rect width="5" height="18" transform="matrix(0.866025 0.5 0 1 0 3.5)" fill="#FFB300"/>
<rect width="7" height="18" transform="matrix(0.866025 -0.5 0 1 4.33008 6)" fill="#FF6F00"/>
<rect width="10" height="7" transform="matrix(0.866025 0.5 -0.866025 0.5 10.3413 15.4895)" fill="#FFD54F"/>
<rect width="10" height="5" transform="matrix(0.866025 0.5 -9.77041e-09 1 4.27881 18.9894)" fill="#FFB300"/>
<rect width="7" height="5" transform="matrix(0.866025 -0.5 -9.77041e-09 1 12.939 23.9895)" fill="#FF6F00"/>
<rect width="5" height="7" transform="matrix(0.866025 0.5 -0.866025 0.5 18.3618 6.19922)" fill="#FFD54F"/>
<rect width="5" height="30" transform="matrix(0.866025 0.5 0 1 12.2998 9.69922)" fill="#FFB300"/>
<rect width="7" height="30" transform="matrix(0.866025 -0.5 0 1 16.6299 12.1992)" fill="#FF6F00"/>
</svg>
