<svg width="22" height="44" viewBox="0 0 22 44" fill="none" xmlns="http://www.w3.org/2000/svg">
<rect width="13" height="7" transform="matrix(0.866025 0.5 -0.866025 0.5 6.16211 26.0983)" fill="#FFD54F"/>
<rect width="13" height="5" transform="matrix(0.866025 0.5 0 1 0.100098 29.5983)" fill="#FFB300"/>
<rect width="7" height="5" transform="matrix(0.866025 -0.5 0 1 11.3584 36.0983)" fill="#FF6F00"/>
<rect width="5" height="7" transform="matrix(0.866025 0.5 -0.866025 0.5 6.06201 0)" fill="#FFD54F"/>
<rect width="5" height="18" transform="matrix(0.866025 0.5 0 1 0 3.5)" fill="#FFB300"/>
<rect width="7" height="18" transform="matrix(0.866025 -0.5 0 1 4.33008 6)" fill="#FF6F00"/>
<rect width="13" height="7" transform="matrix(0.866025 0.5 -0.866025 0.5 10.062 15.3992)" fill="#FFD54F"/>
<rect width="13" height="5" transform="matrix(0.866025 0.5 0 1 4 18.8992)" fill="#FFB300"/>
<rect width="7" height="5" transform="matrix(0.866025 -0.5 0 1 15.2583 25.3992)" fill="#FF6F00"/>
<rect width="13" height="7" transform="matrix(0.866025 0.5 -0.866025 0.5 9.92432 2)" fill="#FFD54F"/>
<rect width="13" height="5" transform="matrix(0.866025 0.5 0 1 3.8623 5.5)" fill="#FFB300"/>
<rect width="7" height="5" transform="matrix(0.866025 -0.5 0 1 15.1206 12)" fill="#FF6F00"/>
<rect width="5" height="7" transform="matrix(0.866025 0.5 -0.866025 0.5 17.062 19.3997)" fill="#FFD54F"/>
<rect width="5" height="18" transform="matrix(0.866025 0.5 0 1 11 22.8997)" fill="#FFB300"/>
<rect width="7" height="18" transform="matrix(0.866025 -0.5 0 1 15.3301 25.3997)" fill="#FF6F00"/>
</svg>
