<svg width="22" height="46" viewBox="0 0 22 46" fill="none" xmlns="http://www.w3.org/2000/svg">
<rect width="5" height="7" transform="matrix(0.866025 0.5 -0.866025 0.5 6.06201 10.8)" fill="#FFD54F"/>
<rect width="5" height="23" transform="matrix(0.866025 0.5 0 1 0 14.3)" fill="#FFB300"/>
<rect width="7" height="23" transform="matrix(0.866025 -0.5 0 1 4.33008 16.8)" fill="#FF6F00"/>
<rect width="13" height="7" transform="matrix(0.866025 0.5 -0.866025 0.5 10.062 31.0005)" fill="#FFD54F"/>
<rect width="13" height="5" transform="matrix(0.866025 0.5 0 1 4 34.5005)" fill="#FFB300"/>
<rect width="7" height="5" transform="matrix(0.866025 -0.5 0 1 15.2583 41.0005)" fill="#FF6F00"/>
<rect width="5" height="7" transform="matrix(0.866025 0.5 -0.866025 0.5 16.9619 24.2)" fill="#FFD54F"/>
<rect width="5" height="11" transform="matrix(0.866025 0.5 0 1 10.8999 27.7)" fill="#FFB300"/>
<rect width="7" height="11" transform="matrix(0.866025 -0.5 0 1 15.23 30.2)" fill="#FF6F00"/>
<rect width="5" height="7" transform="matrix(0.866025 0.5 -0.866025 0.5 6.06201 0)" fill="#FFD54F"/>
<rect width="5" height="18" transform="matrix(0.866025 0.5 0 1 0 3.5)" fill="#FFB300"/>
<rect width="7" height="18" transform="matrix(0.866025 -0.5 0 1 4.33008 6)" fill="#FF6F00"/>
<rect width="13" height="7" transform="matrix(0.866025 0.5 -0.866025 0.5 10.062 15.3992)" fill="#FFD54F"/>
<rect width="13" height="5" transform="matrix(0.866025 0.5 0 1 4 18.8992)" fill="#FFB300"/>
<rect width="7" height="5" transform="matrix(0.866025 -0.5 0 1 15.2583 25.3992)" fill="#FF6F00"/>
</svg>
