<svg width="26" height="44" viewBox="0 0 26 44" fill="none" xmlns="http://www.w3.org/2000/svg">
<rect width="5" height="7" transform="matrix(0.866025 0.5 -0.866025 0.5 6.06201 16.4991)" fill="#FFD54F"/>
<rect width="5" height="10" transform="matrix(0.866025 0.5 0 1 0 19.9991)" fill="#FFB300"/>
<rect width="7" height="10" transform="matrix(0.866025 -0.5 0 1 4.33008 22.4991)" fill="#FF6F00"/>
<rect width="13" height="7" transform="matrix(0.866025 0.5 -0.866025 0.5 10.3945 14.6995)" fill="#FFD54F"/>
<rect width="13" height="5" transform="matrix(0.866025 0.5 0 1 4.33252 18.1995)" fill="#FFB300"/>
<rect width="7" height="5" transform="matrix(0.866025 -0.5 0 1 15.5908 24.6995)" fill="#FF6F00"/>
<rect width="5" height="7" transform="matrix(0.866025 0.5 -0.866025 0.5 21.4619 11.0992)" fill="#FFD54F"/>
<rect width="5" height="10" transform="matrix(0.866025 0.5 0 1 15.3999 14.5992)" fill="#FFB300"/>
<rect width="7" height="10" transform="matrix(0.866025 -0.5 0 1 19.73 17.0992)" fill="#FF6F00"/>
<rect width="13" height="7" transform="matrix(0.866025 0.5 -0.866025 0.5 10.3618 28.4988)" fill="#FFD54F"/>
<rect width="13" height="5" transform="matrix(0.866025 0.5 0 1 4.2998 31.9988)" fill="#FFB300"/>
<rect width="7" height="5" transform="matrix(0.866025 -0.5 0 1 15.5581 38.4988)" fill="#FF6F00"/>
<rect width="5" height="7" transform="matrix(0.866025 0.5 -0.866025 0.5 21.6621 25.8984)" fill="#FFD54F"/>
<rect width="5" height="10" transform="matrix(0.866025 0.5 0 1 15.6001 29.3984)" fill="#FFB300"/>
<rect width="7" height="10" transform="matrix(0.866025 -0.5 0 1 19.9302 31.8984)" fill="#FF6F00"/>
<rect width="5" height="7" transform="matrix(0.866025 0.5 -0.866025 0.5 6.06201 2.49854)" fill="#FFD54F"/>
<rect width="5" height="10" transform="matrix(0.866025 0.5 0 1 0 5.99854)" fill="#FFB300"/>
<rect width="7" height="10" transform="matrix(0.866025 -0.5 0 1 4.33008 8.49854)" fill="#FF6F00"/>
<rect width="13" height="7" transform="matrix(0.866025 0.5 -0.866025 0.5 10.2246 0)" fill="#FFD54F"/>
<rect width="13" height="5" transform="matrix(0.866025 0.5 0 1 4.1626 3.5)" fill="#FFB300"/>
<rect width="7" height="5" transform="matrix(0.866025 -0.5 0 1 15.4209 10)" fill="#FF6F00"/>
</svg>
