<svg width="25" height="47" viewBox="0 0 25 47" fill="none" xmlns="http://www.w3.org/2000/svg">
<rect width="5" height="7" transform="matrix(0.866025 0.5 -0.866025 0.5 6.06201 1)" fill="#FFD54F"/>
<rect width="5" height="15" transform="matrix(0.866025 0.5 0 1 0 4.5)" fill="#FFB300"/>
<rect width="7" height="15" transform="matrix(0.866025 -0.5 0 1 4.33008 7)" fill="#FF6F00"/>
<rect width="15" height="7" transform="matrix(0.866025 0.5 -0.866025 0.5 9.71143 15.2898)" fill="#FFD54F"/>
<rect width="15" height="5" transform="matrix(0.866025 0.5 -9.77041e-09 1 3.64893 18.7898)" fill="#FFB300"/>
<rect width="7" height="5" transform="matrix(0.866025 -0.5 -9.77041e-09 1 16.6392 26.2897)" fill="#FF6F00"/>
<rect width="5" height="7" transform="matrix(0.866025 0.5 -0.866025 0.5 18.415 10.1237)" fill="#FFD54F"/>
<rect width="5" height="30" transform="matrix(0.866025 0.5 0 1 12.353 13.6237)" fill="#FFB300"/>
<rect width="7" height="30" transform="matrix(0.866025 -0.5 0 1 16.6831 16.1237)" fill="#FF6F00"/>
<rect width="15" height="7" transform="matrix(0.866025 0.5 -0.866025 0.5 9.71143 0.289795)" fill="#FFD54F"/>
<rect width="15" height="5" transform="matrix(0.866025 0.5 -9.77041e-09 1 3.64893 3.78979)" fill="#FFB300"/>
<rect width="7" height="5" transform="matrix(0.866025 -0.5 -9.77041e-09 1 16.6392 11.2897)" fill="#FF6F00"/>
</svg>
