<svg width="2166" height="1280" viewBox="0 0 2166 1280" fill="none" xmlns="http://www.w3.org/2000/svg">
<rect width="10" height="20" transform="matrix(0.866025 -0.5 0 1 2109.66 743)" fill="#1A2E15"/>
<rect width="10" height="10" transform="matrix(0.866025 0.5 -0.866025 0.5 2109.66 733)" fill="#3E6030"/>
<rect width="10" height="20" transform="matrix(0.866025 0.5 0 1 2101 738)" fill="#2B4520"/>
<rect width="10" height="10" transform="matrix(0.866025 0.5 -0.866025 0.5 2109.66 733)" fill="#3E6030"/>
<rect width="10" height="20" transform="matrix(0.866025 0.5 0 1 2101 738)" fill="#2B4520"/>
<rect width="10" height="20" transform="matrix(0.866025 -0.5 0 1 2109.66 743)" fill="#1A2E15"/>
<rect width="1500" height="30" transform="matrix(0.866025 0.5 0 1 0 500)" fill="#102210"/>
<rect width="1000" height="30" transform="matrix(0.866025 -0.5 0 1 1299.04 1250)" fill="#1F3815"/>
<rect width="1500" height="1000" transform="matrix(0.866025 0.5 -0.866025 0.5 866.025 0)" fill="#2D4C1E"/>
<rect width="1001.16" height="300" transform="matrix(0.866025 0.5 -0.866025 0.5 507.808 209)" fill="#333333"/>
<rect width="1013.85" height="303.802" transform="matrix(0.869608 0.493743 -0.869608 0.493743 932.188 455)" fill="#333333"/>
<path d="M826.301 519L1692.33 1019L1649.03 1044L783 544L826.301 519Z" fill="white"/>
<path d="M393.289 269L1259.31 769L1216.01 794L349.988 294L393.289 269Z" fill="white"/>
<rect width="164.871" height="41.2177" transform="matrix(0.866025 0.5 -0.866025 0.5 370.019 334)" fill="#333333"/>
<rect width="164.871" height="41.2177" transform="matrix(0.866025 0.5 -0.866025 0.5 353.696 343.233)" fill="#333333"/>
<rect width="164.871" height="41.2177" transform="matrix(0.866025 0.5 -0.866025 0.5 926.019 571)" fill="#333333"/>
<rect width="164.871" height="41.2177" transform="matrix(0.866025 0.5 -0.866025 0.5 909.696 580.233)" fill="#333333"/>
<rect width="164.871" height="41.2177" transform="matrix(0.866025 0.5 -0.866025 0.5 1410.7 874)" fill="#333333"/>
<rect width="164.871" height="41.2177" transform="matrix(0.866025 0.5 -0.866025 0.5 1410.7 874)" fill="#333333"/>
<rect width="164.871" height="41.2177" transform="matrix(0.866025 0.5 -0.866025 0.5 1425.7 865)" fill="#333333"/>
<rect width="164.871" height="41.2177" transform="matrix(0.866025 0.5 -0.866025 0.5 1435.7 859)" fill="#333333"/>
<rect width="164.871" height="41.2177" transform="matrix(0.866025 0.5 -0.866025 0.5 1141.7 716)" fill="#333333"/>
<rect width="164.871" height="41.2177" transform="matrix(0.866025 0.5 -0.866025 0.5 1141.7 716)" fill="#333333"/>
<rect width="164.871" height="41.2177" transform="matrix(0.866025 0.5 -0.866025 0.5 1156.7 707)" fill="#333333"/>
<rect width="164.871" height="41.2177" transform="matrix(0.866025 0.5 -0.866025 0.5 1166.7 701)" fill="#333333"/>
<rect width="164.871" height="41.2177" transform="matrix(0.866025 0.5 -0.866025 0.5 643.696 434)" fill="#333333"/>
<rect width="164.871" height="41.2177" transform="matrix(0.866025 0.5 -0.866025 0.5 643.696 434)" fill="#333333"/>
<rect width="164.871" height="41.2177" transform="matrix(0.866025 0.5 -0.866025 0.5 652.696 429)" fill="#333333"/>
<rect width="164.871" height="41.2177" transform="matrix(0.866025 0.5 -0.866025 0.5 671.696 418)" fill="#333333"/>
<rect width="164.871" height="41.2177" transform="matrix(0.866025 0.5 -0.866025 0.5 412.696 299)" fill="#333333"/>
<rect width="164.871" height="41.2177" transform="matrix(0.866025 0.5 -0.866025 0.5 412.696 299)" fill="#333333"/>
<rect width="164.871" height="41.2177" transform="matrix(0.866025 0.5 -0.866025 0.5 421.696 294)" fill="#333333"/>
<rect width="164.871" height="41.2177" transform="matrix(0.866025 0.5 -0.866025 0.5 440.696 283)" fill="#333333"/>
<rect width="164.871" height="41.2177" transform="matrix(0.866025 0.5 -0.866025 0.5 1303.02 874)" fill="#333333"/>
<rect width="164.871" height="41.2177" transform="matrix(0.866025 0.5 -0.866025 0.5 1286.7 883.233)" fill="#333333"/>
<rect width="150" height="150" transform="matrix(0.866025 0.5 -0.866025 0.5 721.904 56)" fill="#B0BEC5"/>
<rect width="150" height="30" transform="matrix(0.866025 0.5 0 1 592 131)" fill="#90A4AE"/>
<rect width="150" height="30" transform="matrix(0.866025 -0.5 0 1 721.904 206)" fill="#CFD8DC"/>
<rect width="150" height="150" transform="matrix(0.866025 0.5 -0.866025 0.5 721.904 56)" fill="#B0BEC5"/>
<rect width="150" height="30" transform="matrix(0.866025 0.5 0 1 592 131)" fill="#90A4AE"/>
<rect width="150" height="30" transform="matrix(0.866025 -0.5 0 1 721.904 206)" fill="#CFD8DC"/>
<rect width="150" height="150" transform="matrix(0.866025 0.5 -0.866025 0.5 904.888 160.522)" fill="#B0BEC5"/>
<rect width="150" height="30" transform="matrix(0.866025 0.5 0 1 774.985 235.522)" fill="#90A4AE"/>
<rect width="150" height="30" transform="matrix(0.866025 -0.5 0 1 904.888 310.522)" fill="#CFD8DC"/>
<rect width="150.347" height="150.347" transform="matrix(0.86669 0.498848 -0.86669 0.498848 1086.92 267.112)" fill="#B0BEC5"/>
<rect width="150.346" height="30" transform="matrix(0.866025 0.5 0 1 956.615 342.112)" fill="#90A4AE"/>
<rect width="150.347" height="30" transform="matrix(0.86669 -0.498848 0 1 1086.92 417.112)" fill="#CFD8DC"/>
<rect width="150.347" height="150.347" transform="matrix(0.86669 0.498848 -0.86669 0.498848 1086.92 267.112)" fill="#B0BEC5"/>
<rect width="150.346" height="30" transform="matrix(0.866025 0.5 0 1 956.615 342.112)" fill="#90A4AE"/>
<rect width="150.347" height="30" transform="matrix(0.86669 -0.498848 0 1 1086.92 417.112)" fill="#CFD8DC"/>
<rect width="150.346" height="30" transform="matrix(0.866025 0.5 0 1 1560.43 685.708)" fill="#90A4AE"/>
<rect width="150.347" height="150.347" transform="matrix(0.86669 0.498848 -0.86669 0.498848 1690.83 610.808)" fill="#B0BEC5"/>
<rect width="150.347" height="30" transform="matrix(0.86669 -0.498848 0 1 1690.83 760.808)" fill="#CFD8DC"/>
<rect width="150.347" height="150.347" transform="matrix(0.86669 0.498848 -0.86669 0.498848 1896.43 726.209)" fill="#B0BEC5"/>
<rect width="150.346" height="30" transform="matrix(0.866025 0.5 0 1 1766.13 801.209)" fill="#90A4AE"/>
<rect width="150.347" height="30" transform="matrix(0.86669 -0.498848 0 1 1896.43 876.209)" fill="#CFD8DC"/>
<rect width="150.347" height="150.347" transform="matrix(0.86669 0.498848 -0.86669 0.498848 1896.43 726.209)" fill="#B0BEC5"/>
<rect width="150.346" height="30" transform="matrix(0.866025 0.5 0 1 1766.13 801.209)" fill="#90A4AE"/>
<rect width="150.347" height="30" transform="matrix(0.86669 -0.498848 0 1 1896.43 876.209)" fill="#CFD8DC"/>
<rect width="150.347" height="150.347" transform="matrix(0.86669 0.498848 -0.86669 0.498848 1488.55 496.221)" fill="#B0BEC5"/>
<rect width="150.346" height="30" transform="matrix(0.866025 0.5 0 1 1358.25 571.221)" fill="#90A4AE"/>
<rect width="150.347" height="30" transform="matrix(0.86669 -0.498848 0 1 1488.55 646.221)" fill="#CFD8DC"/>
<rect width="150.347" height="150.347" transform="matrix(0.86669 0.498848 -0.86669 0.498848 1488.55 496.221)" fill="#B0BEC5"/>
<rect width="150.346" height="30" transform="matrix(0.866025 0.5 0 1 1358.25 571.221)" fill="#90A4AE"/>
<rect width="150.347" height="30" transform="matrix(0.86669 -0.498848 0 1 1488.55 646.221)" fill="#CFD8DC"/>
<rect width="150.347" height="150.347" transform="matrix(0.86669 0.498848 -0.86669 0.498848 1284.87 379.945)" fill="#B0BEC5"/>
<rect width="150.346" height="30" transform="matrix(0.866025 0.5 0 1 1154.56 454.945)" fill="#90A4AE"/>
<rect width="150.347" height="30" transform="matrix(0.86669 -0.498848 0 1 1284.87 529.945)" fill="#CFD8DC"/>
<rect width="150.347" height="150.347" transform="matrix(0.86669 0.498848 -0.86669 0.498848 1284.87 379.945)" fill="#B0BEC5"/>
<rect width="150.346" height="30" transform="matrix(0.866025 0.5 0 1 1154.56 454.945)" fill="#90A4AE"/>
<rect width="150.347" height="30" transform="matrix(0.86669 -0.498848 0 1 1284.87 529.945)" fill="#CFD8DC"/>
<rect width="150" height="150" transform="matrix(0.866025 0.5 -0.866025 0.5 166.904 376)" fill="#B0BEC5"/>
<rect width="150" height="30" transform="matrix(0.866025 0.5 0 1 37 451)" fill="#90A4AE"/>
<rect width="150" height="30" transform="matrix(0.866025 -0.5 0 1 166.904 526)" fill="#CFD8DC"/>
<rect width="150" height="150" transform="matrix(0.866025 0.5 -0.866025 0.5 166.904 376)" fill="#B0BEC5"/>
<rect width="150" height="30" transform="matrix(0.866025 0.5 0 1 37 451)" fill="#90A4AE"/>
<rect width="150" height="30" transform="matrix(0.866025 -0.5 0 1 166.904 526)" fill="#CFD8DC"/>
<rect width="150" height="150" transform="matrix(0.866025 0.5 -0.866025 0.5 349.888 480.522)" fill="#B0BEC5"/>
<rect width="150" height="30" transform="matrix(0.866025 0.5 0 1 219.985 555.522)" fill="#90A4AE"/>
<rect width="150" height="30" transform="matrix(0.866025 -0.5 0 1 349.888 630.522)" fill="#CFD8DC"/>
<rect width="150.347" height="150.347" transform="matrix(0.86669 0.498848 -0.86669 0.498848 531.917 587.112)" fill="#B0BEC5"/>
<rect width="150.346" height="30" transform="matrix(0.866025 0.5 0 1 401.615 662.112)" fill="#90A4AE"/>
<rect width="150.347" height="30" transform="matrix(0.86669 -0.498848 0 1 531.917 737.112)" fill="#CFD8DC"/>
<rect width="150.347" height="150.347" transform="matrix(0.86669 0.498848 -0.86669 0.498848 531.917 587.112)" fill="#B0BEC5"/>
<rect width="150.346" height="30" transform="matrix(0.866025 0.5 0 1 401.615 662.112)" fill="#90A4AE"/>
<rect width="150.347" height="30" transform="matrix(0.86669 -0.498848 0 1 531.917 737.112)" fill="#CFD8DC"/>
<rect width="150.346" height="30" transform="matrix(0.866025 0.5 0 1 1005.43 1005.71)" fill="#90A4AE"/>
<rect width="150.347" height="150.347" transform="matrix(0.86669 0.498848 -0.86669 0.498848 1135.83 930.808)" fill="#B0BEC5"/>
<rect width="150.347" height="30" transform="matrix(0.86669 -0.498848 0 1 1135.83 1080.81)" fill="#CFD8DC"/>
<rect width="150.347" height="150.347" transform="matrix(0.86669 0.498848 -0.86669 0.498848 1341.43 1046.21)" fill="#B0BEC5"/>
<rect width="150.346" height="30" transform="matrix(0.866025 0.5 0 1 1211.13 1121.21)" fill="#90A4AE"/>
<rect width="150.347" height="30" transform="matrix(0.86669 -0.498848 0 1 1341.43 1196.21)" fill="#CFD8DC"/>
<rect width="150.347" height="150.347" transform="matrix(0.86669 0.498848 -0.86669 0.498848 1341.43 1046.21)" fill="#B0BEC5"/>
<rect width="150.346" height="30" transform="matrix(0.866025 0.5 0 1 1211.13 1121.21)" fill="#90A4AE"/>
<rect width="150.347" height="30" transform="matrix(0.86669 -0.498848 0 1 1341.43 1196.21)" fill="#CFD8DC"/>
<rect width="150.347" height="150.347" transform="matrix(0.86669 0.498848 -0.86669 0.498848 933.549 816.221)" fill="#B0BEC5"/>
<rect width="150.346" height="30" transform="matrix(0.866025 0.5 0 1 803.246 891.221)" fill="#90A4AE"/>
<rect width="150.347" height="30" transform="matrix(0.86669 -0.498848 0 1 933.549 966.221)" fill="#CFD8DC"/>
<rect width="150.347" height="150.347" transform="matrix(0.86669 0.498848 -0.86669 0.498848 933.549 816.221)" fill="#B0BEC5"/>
<rect width="150.346" height="30" transform="matrix(0.866025 0.5 0 1 803.246 891.221)" fill="#90A4AE"/>
<rect width="150.347" height="30" transform="matrix(0.86669 -0.498848 0 1 933.549 966.221)" fill="#CFD8DC"/>
<rect width="150.347" height="150.347" transform="matrix(0.86669 0.498848 -0.86669 0.498848 729.866 699.945)" fill="#B0BEC5"/>
<rect width="150.346" height="30" transform="matrix(0.866025 0.5 0 1 599.563 774.945)" fill="#90A4AE"/>
<rect width="150.347" height="30" transform="matrix(0.86669 -0.498848 0 1 729.866 849.945)" fill="#CFD8DC"/>
<rect width="150.347" height="150.347" transform="matrix(0.86669 0.498848 -0.86669 0.498848 729.866 699.945)" fill="#B0BEC5"/>
<rect width="150.346" height="30" transform="matrix(0.866025 0.5 0 1 599.563 774.945)" fill="#90A4AE"/>
<rect width="150.347" height="30" transform="matrix(0.86669 -0.498848 0 1 729.866 849.945)" fill="#CFD8DC"/>
<rect width="10" height="10" transform="matrix(0.866025 0.5 -0.866025 0.5 1898.66 658)" fill="#3E6030"/>
<rect width="10" height="20" transform="matrix(0.866025 0.5 0 1 1890 663)" fill="#2B4520"/>
<rect width="10" height="20" transform="matrix(0.866025 -0.5 0 1 1898.66 668)" fill="#1A2E15"/>
<rect width="10" height="10" transform="matrix(0.866025 0.5 -0.866025 0.5 1898.66 658)" fill="#3E6030"/>
<rect width="10" height="20" transform="matrix(0.866025 0.5 0 1 1890 663)" fill="#2B4520"/>
<rect width="10" height="20" transform="matrix(0.866025 -0.5 0 1 1898.66 668)" fill="#1A2E15"/>
<rect width="10" height="10" transform="matrix(0.866025 0.5 -0.866025 0.5 1938.66 673)" fill="#3E6030"/>
<rect width="10" height="20" transform="matrix(0.866025 0.5 0 1 1930 678)" fill="#2B4520"/>
<rect width="10" height="20" transform="matrix(0.866025 -0.5 0 1 1938.66 683)" fill="#1A2E15"/>
<rect width="10" height="10" transform="matrix(0.866025 0.5 -0.866025 0.5 1938.66 673)" fill="#3E6030"/>
<rect width="10" height="20" transform="matrix(0.866025 0.5 0 1 1930 678)" fill="#2B4520"/>
<rect width="10" height="20" transform="matrix(0.866025 -0.5 0 1 1938.66 683)" fill="#1A2E15"/>
<rect width="10" height="10" transform="matrix(0.866025 0.5 -0.866025 0.5 2063.66 738)" fill="#3E6030"/>
<rect width="10" height="20" transform="matrix(0.866025 0.5 0 1 2055 743)" fill="#2B4520"/>
<rect width="10" height="20" transform="matrix(0.866025 -0.5 0 1 2063.66 748)" fill="#1A2E15"/>
<rect width="10" height="10" transform="matrix(0.866025 0.5 -0.866025 0.5 2063.66 738)" fill="#3E6030"/>
<rect width="10" height="20" transform="matrix(0.866025 0.5 0 1 2055 743)" fill="#2B4520"/>
<rect width="10" height="20" transform="matrix(0.866025 -0.5 0 1 2063.66 748)" fill="#1A2E15"/>
<rect width="10" height="10" transform="matrix(0.866025 0.5 -0.866025 0.5 822.66 316)" fill="#26A641"/>
<rect width="10" height="20" transform="matrix(0.866025 0.5 0 1 814 321)" fill="#26A641"/>
<rect width="10" height="20" transform="matrix(0.866025 -0.5 0 1 822.66 326)" fill="#006D32"/>
<rect width="10" height="10" transform="matrix(0.866025 0.5 -0.866025 0.5 822.66 316)" fill="#26A641"/>
<rect width="10" height="20" transform="matrix(0.866025 0.5 0 1 814 321)" fill="#26A641"/>
<rect width="10" height="20" transform="matrix(0.866025 -0.5 0 1 822.66 326)" fill="#006D32"/>
<rect width="10" height="10" transform="matrix(0.866025 0.5 -0.866025 0.5 745.66 313)" fill="#3E6030"/>
<rect width="10" height="20" transform="matrix(0.866025 0.5 0 1 737 318)" fill="#2B4520"/>
<rect width="10" height="20" transform="matrix(0.866025 -0.5 0 1 745.66 323)" fill="#1A2E15"/>
<rect width="10" height="10" transform="matrix(0.866025 0.5 -0.866025 0.5 745.66 313)" fill="#3E6030"/>
<rect width="10" height="20" transform="matrix(0.866025 0.5 0 1 737 318)" fill="#2B4520"/>
<rect width="10" height="20" transform="matrix(0.866025 -0.5 0 1 745.66 323)" fill="#1A2E15"/>
<rect width="10" height="10" transform="matrix(0.866025 0.5 -0.866025 0.5 658.66 711)" fill="#66BB6A"/>
<rect width="10" height="20" transform="matrix(0.866025 0.5 0 1 650 716)" fill="#388E3C"/>
<rect width="10" height="20" transform="matrix(0.866025 -0.5 0 1 658.66 721)" fill="#1B5E20"/>
<rect width="10" height="10" transform="matrix(0.866025 0.5 -0.866025 0.5 658.66 711)" fill="#66BB6A"/>
<rect width="10" height="20" transform="matrix(0.866025 0.5 0 1 650 716)" fill="#388E3C"/>
<rect width="10" height="20" transform="matrix(0.866025 -0.5 0 1 658.66 721)" fill="#1B5E20"/>
<rect width="10" height="10" transform="matrix(0.866025 0.5 -0.866025 0.5 222.66 594)" fill="#26A641"/>
<rect width="10" height="20" transform="matrix(0.866025 0.5 0 1 214 599)" fill="#26A641"/>
<rect width="10" height="20" transform="matrix(0.866025 -0.5 0 1 222.66 604)" fill="#006D32"/>
<rect width="10" height="10" transform="matrix(0.866025 0.5 -0.866025 0.5 222.66 594)" fill="#26A641"/>
<rect width="10" height="20" transform="matrix(0.866025 0.5 0 1 214 599)" fill="#26A641"/>
<rect width="10" height="20" transform="matrix(0.866025 -0.5 0 1 222.66 604)" fill="#006D32"/>
<rect width="10" height="10" transform="matrix(0.866025 0.5 -0.866025 0.5 82.6602 511)" fill="#3E6030"/>
<rect width="10" height="20" transform="matrix(0.866025 0.5 0 1 74 516)" fill="#2B4520"/>
<rect width="10" height="20" transform="matrix(0.866025 -0.5 0 1 82.6602 521)" fill="#1A2E15"/>
<rect width="10" height="10" transform="matrix(0.866025 0.5 -0.866025 0.5 82.6602 511)" fill="#3E6030"/>
<rect width="10" height="20" transform="matrix(0.866025 0.5 0 1 74 516)" fill="#2B4520"/>
<rect width="10" height="20" transform="matrix(0.866025 -0.5 0 1 82.6602 521)" fill="#1A2E15"/>
<rect width="10" height="10" transform="matrix(0.866025 0.5 -0.866025 0.5 604.66 584)" fill="#66BB6A"/>
<rect width="10" height="20" transform="matrix(0.866025 0.5 0 1 596 589)" fill="#388E3C"/>
<rect width="10" height="20" transform="matrix(0.866025 -0.5 0 1 604.66 594)" fill="#1B5E20"/>
<rect width="10" height="10" transform="matrix(0.866025 0.5 -0.866025 0.5 604.66 584)" fill="#66BB6A"/>
<rect width="10" height="20" transform="matrix(0.866025 0.5 0 1 596 589)" fill="#388E3C"/>
<rect width="10" height="20" transform="matrix(0.866025 -0.5 0 1 604.66 594)" fill="#1B5E20"/>
<rect width="10" height="10" transform="matrix(0.866025 0.5 -0.866025 0.5 818.66 716)" fill="#26A641"/>
<rect width="10" height="20" transform="matrix(0.866025 0.5 0 1 810 721)" fill="#26A641"/>
<rect width="10" height="20" transform="matrix(0.866025 -0.5 0 1 818.66 726)" fill="#006D32"/>
<rect width="10" height="10" transform="matrix(0.866025 0.5 -0.866025 0.5 818.66 716)" fill="#26A641"/>
<rect width="10" height="20" transform="matrix(0.866025 0.5 0 1 810 721)" fill="#26A641"/>
<rect width="10" height="20" transform="matrix(0.866025 -0.5 0 1 818.66 726)" fill="#006D32"/>
<rect width="10" height="10" transform="matrix(0.866025 0.5 -0.866025 0.5 554.66 775)" fill="#3E6030"/>
<rect width="10" height="20" transform="matrix(0.866025 0.5 0 1 546 780)" fill="#2B4520"/>
<rect width="10" height="20" transform="matrix(0.866025 -0.5 0 1 554.66 785)" fill="#1A2E15"/>
<rect width="10" height="10" transform="matrix(0.866025 0.5 -0.866025 0.5 554.66 775)" fill="#3E6030"/>
<rect width="10" height="20" transform="matrix(0.866025 0.5 0 1 546 780)" fill="#2B4520"/>
<rect width="10" height="20" transform="matrix(0.866025 -0.5 0 1 554.66 785)" fill="#1A2E15"/>
<rect width="10" height="10" transform="matrix(0.866025 0.5 -0.866025 0.5 660.66 842)" fill="#66BB6A"/>
<rect width="10" height="20" transform="matrix(0.866025 0.5 0 1 652 847)" fill="#388E3C"/>
<rect width="10" height="20" transform="matrix(0.866025 -0.5 0 1 660.66 852)" fill="#1B5E20"/>
<rect width="10" height="10" transform="matrix(0.866025 0.5 -0.866025 0.5 660.66 842)" fill="#66BB6A"/>
<rect width="10" height="20" transform="matrix(0.866025 0.5 0 1 652 847)" fill="#388E3C"/>
<rect width="10" height="20" transform="matrix(0.866025 -0.5 0 1 660.66 852)" fill="#1B5E20"/>
<rect width="10" height="10" transform="matrix(0.866025 0.5 -0.866025 0.5 1624.66 768)" fill="#26A641"/>
<rect width="10" height="20" transform="matrix(0.866025 0.5 0 1 1616 773)" fill="#26A641"/>
<rect width="10" height="20" transform="matrix(0.866025 -0.5 0 1 1624.66 778)" fill="#006D32"/>
<rect width="10" height="10" transform="matrix(0.866025 0.5 -0.866025 0.5 1624.66 768)" fill="#26A641"/>
<rect width="10" height="20" transform="matrix(0.866025 0.5 0 1 1616 773)" fill="#26A641"/>
<rect width="10" height="20" transform="matrix(0.866025 -0.5 0 1 1624.66 778)" fill="#006D32"/>
<rect width="10" height="10" transform="matrix(0.866025 0.5 -0.866025 0.5 465.66 736)" fill="#3E6030"/>
<rect width="10" height="20" transform="matrix(0.866025 0.5 0 1 457 741)" fill="#2B4520"/>
<rect width="10" height="20" transform="matrix(0.866025 -0.5 0 1 465.66 746)" fill="#1A2E15"/>
<rect width="10" height="10" transform="matrix(0.866025 0.5 -0.866025 0.5 465.66 736)" fill="#3E6030"/>
<rect width="10" height="20" transform="matrix(0.866025 0.5 0 1 457 741)" fill="#2B4520"/>
<rect width="10" height="20" transform="matrix(0.866025 -0.5 0 1 465.66 746)" fill="#1A2E15"/>
<rect width="10" height="10" transform="matrix(0.866025 0.5 -0.866025 0.5 1512.66 726)" fill="#66BB6A"/>
<rect width="10" height="20" transform="matrix(0.866025 0.5 0 1 1504 731)" fill="#388E3C"/>
<rect width="10" height="20" transform="matrix(0.866025 -0.5 0 1 1512.66 736)" fill="#1B5E20"/>
<rect width="10" height="10" transform="matrix(0.866025 0.5 -0.866025 0.5 1512.66 726)" fill="#66BB6A"/>
<rect width="10" height="20" transform="matrix(0.866025 0.5 0 1 1504 731)" fill="#388E3C"/>
<rect width="10" height="20" transform="matrix(0.866025 -0.5 0 1 1512.66 736)" fill="#1B5E20"/>
<rect width="10" height="10" transform="matrix(0.866025 0.5 -0.866025 0.5 773.66 881)" fill="#26A641"/>
<rect width="10" height="20" transform="matrix(0.866025 0.5 0 1 765 886)" fill="#26A641"/>
<rect width="10" height="20" transform="matrix(0.866025 -0.5 0 1 773.66 891)" fill="#006D32"/>
<rect width="10" height="10" transform="matrix(0.866025 0.5 -0.866025 0.5 773.66 881)" fill="#26A641"/>
<rect width="10" height="20" transform="matrix(0.866025 0.5 0 1 765 886)" fill="#26A641"/>
<rect width="10" height="20" transform="matrix(0.866025 -0.5 0 1 773.66 891)" fill="#006D32"/>
<rect width="10" height="10" transform="matrix(0.866025 0.5 -0.866025 0.5 897.66 793)" fill="#3E6030"/>
<rect width="10" height="20" transform="matrix(0.866025 0.5 0 1 889 798)" fill="#2B4520"/>
<rect width="10" height="20" transform="matrix(0.866025 -0.5 0 1 897.66 803)" fill="#1A2E15"/>
<rect width="10" height="10" transform="matrix(0.866025 0.5 -0.866025 0.5 897.66 793)" fill="#3E6030"/>
<rect width="10" height="20" transform="matrix(0.866025 0.5 0 1 889 798)" fill="#2B4520"/>
<rect width="10" height="20" transform="matrix(0.866025 -0.5 0 1 897.66 803)" fill="#1A2E15"/>
<rect width="10" height="10" transform="matrix(0.866025 0.5 -0.866025 0.5 850.66 951)" fill="#26A641"/>
<rect width="10" height="20" transform="matrix(0.866025 0.5 0 1 842 956)" fill="#26A641"/>
<rect width="10" height="20" transform="matrix(0.866025 -0.5 0 1 850.66 961)" fill="#006D32"/>
<rect width="10" height="10" transform="matrix(0.866025 0.5 -0.866025 0.5 850.66 951)" fill="#26A641"/>
<rect width="10" height="20" transform="matrix(0.866025 0.5 0 1 842 956)" fill="#26A641"/>
<rect width="10" height="20" transform="matrix(0.866025 -0.5 0 1 850.66 961)" fill="#006D32"/>
<rect width="10" height="10" transform="matrix(0.866025 0.5 -0.866025 0.5 1319.66 1013)" fill="#66BB6A"/>
<rect width="10" height="20" transform="matrix(0.866025 0.5 0 1 1311 1018)" fill="#388E3C"/>
<rect width="10" height="20" transform="matrix(0.866025 -0.5 0 1 1319.66 1023)" fill="#1B5E20"/>
<rect width="10" height="10" transform="matrix(0.866025 0.5 -0.866025 0.5 1319.66 1013)" fill="#66BB6A"/>
<rect width="10" height="20" transform="matrix(0.866025 0.5 0 1 1311 1018)" fill="#388E3C"/>
<rect width="10" height="20" transform="matrix(0.866025 -0.5 0 1 1319.66 1023)" fill="#1B5E20"/>
<rect width="10" height="10" transform="matrix(0.866025 0.5 -0.866025 0.5 989.66 978)" fill="#26A641"/>
<rect width="10" height="20" transform="matrix(0.866025 0.5 0 1 981 983)" fill="#26A641"/>
<rect width="10" height="20" transform="matrix(0.866025 -0.5 0 1 989.66 988)" fill="#006D32"/>
<rect width="10" height="10" transform="matrix(0.866025 0.5 -0.866025 0.5 989.66 978)" fill="#26A641"/>
<rect width="10" height="20" transform="matrix(0.866025 0.5 0 1 981 983)" fill="#26A641"/>
<rect width="10" height="20" transform="matrix(0.866025 -0.5 0 1 989.66 988)" fill="#006D32"/>
<rect width="10" height="10" transform="matrix(0.866025 0.5 -0.866025 0.5 1067.66 847)" fill="#3E6030"/>
<rect width="10" height="20" transform="matrix(0.866025 0.5 0 1 1059 852)" fill="#2B4520"/>
<rect width="10" height="20" transform="matrix(0.866025 -0.5 0 1 1067.66 857)" fill="#1A2E15"/>
<rect width="10" height="10" transform="matrix(0.866025 0.5 -0.866025 0.5 1067.66 847)" fill="#3E6030"/>
<rect width="10" height="20" transform="matrix(0.866025 0.5 0 1 1059 852)" fill="#2B4520"/>
<rect width="10" height="20" transform="matrix(0.866025 -0.5 0 1 1067.66 857)" fill="#1A2E15"/>
<rect width="10" height="10" transform="matrix(0.866025 0.5 -0.866025 0.5 1152.66 1128)" fill="#26A641"/>
<rect width="10" height="20" transform="matrix(0.866025 0.5 0 1 1144 1133)" fill="#26A641"/>
<rect width="10" height="20" transform="matrix(0.866025 -0.5 0 1 1152.66 1138)" fill="#006D32"/>
<rect width="10" height="10" transform="matrix(0.866025 0.5 -0.866025 0.5 1152.66 1128)" fill="#26A641"/>
<rect width="10" height="20" transform="matrix(0.866025 0.5 0 1 1144 1133)" fill="#26A641"/>
<rect width="10" height="20" transform="matrix(0.866025 -0.5 0 1 1152.66 1138)" fill="#006D32"/>
<rect width="10" height="10" transform="matrix(0.866025 0.5 -0.866025 0.5 1024.66 1058)" fill="#66BB6A"/>
<rect width="10" height="20" transform="matrix(0.866025 0.5 0 1 1016 1063)" fill="#388E3C"/>
<rect width="10" height="20" transform="matrix(0.866025 -0.5 0 1 1024.66 1068)" fill="#1B5E20"/>
<rect width="10" height="10" transform="matrix(0.866025 0.5 -0.866025 0.5 1024.66 1058)" fill="#66BB6A"/>
<rect width="10" height="20" transform="matrix(0.866025 0.5 0 1 1016 1063)" fill="#388E3C"/>
<rect width="10" height="20" transform="matrix(0.866025 -0.5 0 1 1024.66 1068)" fill="#1B5E20"/>
<rect width="10" height="10" transform="matrix(0.866025 0.5 -0.866025 0.5 728.66 256)" fill="#26A641"/>
<rect width="10" height="20" transform="matrix(0.866025 0.5 0 1 720 261)" fill="#26A641"/>
<rect width="10" height="20" transform="matrix(0.866025 -0.5 0 1 728.66 266)" fill="#006D32"/>
<rect width="10" height="10" transform="matrix(0.866025 0.5 -0.866025 0.5 728.66 256)" fill="#26A641"/>
<rect width="10" height="20" transform="matrix(0.866025 0.5 0 1 720 261)" fill="#26A641"/>
<rect width="10" height="20" transform="matrix(0.866025 -0.5 0 1 728.66 266)" fill="#006D32"/>
<rect width="10" height="10" transform="matrix(0.866025 0.5 -0.866025 0.5 1294.66 1211)" fill="#3E6030"/>
<rect width="10" height="20" transform="matrix(0.866025 0.5 0 1 1286 1216)" fill="#2B4520"/>
<rect width="10" height="20" transform="matrix(0.866025 -0.5 0 1 1294.66 1221)" fill="#1A2E15"/>
<rect width="10" height="10" transform="matrix(0.866025 0.5 -0.866025 0.5 1294.66 1211)" fill="#3E6030"/>
<rect width="10" height="20" transform="matrix(0.866025 0.5 0 1 1286 1216)" fill="#2B4520"/>
<rect width="10" height="20" transform="matrix(0.866025 -0.5 0 1 1294.66 1221)" fill="#1A2E15"/>
<rect width="10" height="10" transform="matrix(0.866025 0.5 -0.866025 0.5 1487.66 1088)" fill="#26A641"/>
<rect width="10" height="20" transform="matrix(0.866025 0.5 0 1 1479 1093)" fill="#26A641"/>
<rect width="10" height="20" transform="matrix(0.866025 -0.5 0 1 1487.66 1098)" fill="#006D32"/>
<rect width="10" height="10" transform="matrix(0.866025 0.5 -0.866025 0.5 1487.66 1088)" fill="#26A641"/>
<rect width="10" height="20" transform="matrix(0.866025 0.5 0 1 1479 1093)" fill="#26A641"/>
<rect width="10" height="20" transform="matrix(0.866025 -0.5 0 1 1487.66 1098)" fill="#006D32"/>
<rect width="10" height="10" transform="matrix(0.866025 0.5 -0.866025 0.5 1185.66 918)" fill="#66BB6A"/>
<rect width="10" height="20" transform="matrix(0.866025 0.5 0 1 1177 923)" fill="#388E3C"/>
<rect width="10" height="20" transform="matrix(0.866025 -0.5 0 1 1185.66 928)" fill="#1B5E20"/>
<rect width="10" height="10" transform="matrix(0.866025 0.5 -0.866025 0.5 1185.66 918)" fill="#66BB6A"/>
<rect width="10" height="20" transform="matrix(0.866025 0.5 0 1 1177 923)" fill="#388E3C"/>
<rect width="10" height="20" transform="matrix(0.866025 -0.5 0 1 1185.66 928)" fill="#1B5E20"/>
<rect width="10" height="10" transform="matrix(0.866025 0.5 -0.866025 0.5 1402.66 658)" fill="#26A641"/>
<rect width="10" height="20" transform="matrix(0.866025 0.5 0 1 1394 663)" fill="#26A641"/>
<rect width="10" height="20" transform="matrix(0.866025 -0.5 0 1 1402.66 668)" fill="#006D32"/>
<rect width="10" height="10" transform="matrix(0.866025 0.5 -0.866025 0.5 1402.66 658)" fill="#26A641"/>
<rect width="10" height="20" transform="matrix(0.866025 0.5 0 1 1394 663)" fill="#26A641"/>
<rect width="10" height="20" transform="matrix(0.866025 -0.5 0 1 1402.66 668)" fill="#006D32"/>
<rect width="10" height="10" transform="matrix(0.866025 0.5 -0.866025 0.5 630.66 228)" fill="#3E6030"/>
<rect width="10" height="20" transform="matrix(0.866025 0.5 0 1 622 233)" fill="#2B4520"/>
<rect width="10" height="20" transform="matrix(0.866025 -0.5 0 1 630.66 238)" fill="#1A2E15"/>
<rect width="10" height="10" transform="matrix(0.866025 0.5 -0.866025 0.5 630.66 228)" fill="#3E6030"/>
<rect width="10" height="20" transform="matrix(0.866025 0.5 0 1 622 233)" fill="#2B4520"/>
<rect width="10" height="20" transform="matrix(0.866025 -0.5 0 1 630.66 238)" fill="#1A2E15"/>
<rect width="10" height="10" transform="matrix(0.866025 0.5 -0.866025 0.5 866.66 371)" fill="#26A641"/>
<rect width="10" height="20" transform="matrix(0.866025 0.5 0 1 858 376)" fill="#26A641"/>
<rect width="10" height="20" transform="matrix(0.866025 -0.5 0 1 866.66 381)" fill="#006D32"/>
<rect width="10" height="10" transform="matrix(0.866025 0.5 -0.866025 0.5 866.66 371)" fill="#26A641"/>
<rect width="10" height="20" transform="matrix(0.866025 0.5 0 1 858 376)" fill="#26A641"/>
<rect width="10" height="20" transform="matrix(0.866025 -0.5 0 1 866.66 381)" fill="#006D32"/>
<rect width="10" height="10" transform="matrix(0.866025 0.5 -0.866025 0.5 1010.66 451)" fill="#66BB6A"/>
<rect width="10" height="20" transform="matrix(0.866025 0.5 0 1 1002 456)" fill="#388E3C"/>
<rect width="10" height="20" transform="matrix(0.866025 -0.5 0 1 1010.66 461)" fill="#1B5E20"/>
<rect width="10" height="10" transform="matrix(0.866025 0.5 -0.866025 0.5 1010.66 451)" fill="#66BB6A"/>
<rect width="10" height="20" transform="matrix(0.866025 0.5 0 1 1002 456)" fill="#388E3C"/>
<rect width="10" height="20" transform="matrix(0.866025 -0.5 0 1 1010.66 461)" fill="#1B5E20"/>
<rect width="10" height="10" transform="matrix(0.866025 0.5 -0.866025 0.5 1196.66 543)" fill="#26A641"/>
<rect width="10" height="20" transform="matrix(0.866025 0.5 0 1 1188 548)" fill="#26A641"/>
<rect width="10" height="20" transform="matrix(0.866025 -0.5 0 1 1196.66 553)" fill="#006D32"/>
<rect width="10" height="10" transform="matrix(0.866025 0.5 -0.866025 0.5 1196.66 543)" fill="#26A641"/>
<rect width="10" height="20" transform="matrix(0.866025 0.5 0 1 1188 548)" fill="#26A641"/>
<rect width="10" height="20" transform="matrix(0.866025 -0.5 0 1 1196.66 553)" fill="#006D32"/>
<rect width="10" height="10" transform="matrix(0.866025 0.5 -0.866025 0.5 1671.66 823)" fill="#66BB6A"/>
<rect width="10" height="20" transform="matrix(0.866025 0.5 0 1 1663 828)" fill="#388E3C"/>
<rect width="10" height="20" transform="matrix(0.866025 -0.5 0 1 1671.66 833)" fill="#1B5E20"/>
<rect width="10" height="10" transform="matrix(0.866025 0.5 -0.866025 0.5 1671.66 823)" fill="#66BB6A"/>
<rect width="10" height="20" transform="matrix(0.866025 0.5 0 1 1663 828)" fill="#388E3C"/>
<rect width="10" height="20" transform="matrix(0.866025 -0.5 0 1 1671.66 833)" fill="#1B5E20"/>
<rect width="10" height="10" transform="matrix(0.866025 0.5 -0.866025 0.5 1773.66 852)" fill="#26A641"/>
<rect width="10" height="20" transform="matrix(0.866025 0.5 0 1 1765 857)" fill="#26A641"/>
<rect width="10" height="20" transform="matrix(0.866025 -0.5 0 1 1773.66 862)" fill="#006D32"/>
<rect width="10" height="10" transform="matrix(0.866025 0.5 -0.866025 0.5 1773.66 852)" fill="#26A641"/>
<rect width="10" height="20" transform="matrix(0.866025 0.5 0 1 1765 857)" fill="#26A641"/>
<rect width="10" height="20" transform="matrix(0.866025 -0.5 0 1 1773.66 862)" fill="#006D32"/>
<rect width="10" height="10" transform="matrix(0.866025 0.5 -0.866025 0.5 1791.66 911)" fill="#66BB6A"/>
<rect width="10" height="20" transform="matrix(0.866025 0.5 0 1 1783 916)" fill="#388E3C"/>
<rect width="10" height="20" transform="matrix(0.866025 -0.5 0 1 1791.66 921)" fill="#1B5E20"/>
<rect width="10" height="10" transform="matrix(0.866025 0.5 -0.866025 0.5 1791.66 911)" fill="#66BB6A"/>
<rect width="10" height="20" transform="matrix(0.866025 0.5 0 1 1783 916)" fill="#388E3C"/>
<rect width="10" height="20" transform="matrix(0.866025 -0.5 0 1 1791.66 921)" fill="#1B5E20"/>
<rect width="10" height="10" transform="matrix(0.866025 0.5 -0.866025 0.5 1077.66 469)" fill="#26A641"/>
<rect width="10" height="20" transform="matrix(0.866025 0.5 0 1 1069 474)" fill="#26A641"/>
<rect width="10" height="20" transform="matrix(0.866025 -0.5 0 1 1077.66 479)" fill="#006D32"/>
<rect width="10" height="10" transform="matrix(0.866025 0.5 -0.866025 0.5 1077.66 469)" fill="#26A641"/>
<rect width="10" height="20" transform="matrix(0.866025 0.5 0 1 1069 474)" fill="#26A641"/>
<rect width="10" height="20" transform="matrix(0.866025 -0.5 0 1 1077.66 479)" fill="#006D32"/>
<rect width="10" height="10" transform="matrix(0.866025 0.5 -0.866025 0.5 1296.66 601)" fill="#66BB6A"/>
<rect width="10" height="20" transform="matrix(0.866025 0.5 0 1 1288 606)" fill="#388E3C"/>
<rect width="10" height="20" transform="matrix(0.866025 -0.5 0 1 1296.66 611)" fill="#1B5E20"/>
<rect width="10" height="10" transform="matrix(0.866025 0.5 -0.866025 0.5 1296.66 601)" fill="#66BB6A"/>
<rect width="10" height="20" transform="matrix(0.866025 0.5 0 1 1288 606)" fill="#388E3C"/>
<rect width="10" height="20" transform="matrix(0.866025 -0.5 0 1 1296.66 611)" fill="#1B5E20"/>
<rect width="10" height="10" transform="matrix(0.866025 0.5 -0.866025 0.5 935.66 401)" fill="#26A641"/>
<rect width="10" height="20" transform="matrix(0.866025 0.5 0 1 927 406)" fill="#26A641"/>
<rect width="10" height="20" transform="matrix(0.866025 -0.5 0 1 935.66 411)" fill="#006D32"/>
<rect width="10" height="10" transform="matrix(0.866025 0.5 -0.866025 0.5 935.66 401)" fill="#26A641"/>
<rect width="10" height="20" transform="matrix(0.866025 0.5 0 1 927 406)" fill="#26A641"/>
<rect width="10" height="20" transform="matrix(0.866025 -0.5 0 1 935.66 411)" fill="#006D32"/>
<rect width="10" height="10" transform="matrix(0.866025 0.5 -0.866025 0.5 1002.66 412)" fill="#66BB6A"/>
<rect width="10" height="20" transform="matrix(0.866025 0.5 0 1 994 417)" fill="#388E3C"/>
<rect width="10" height="20" transform="matrix(0.866025 -0.5 0 1 1002.66 422)" fill="#1B5E20"/>
<rect width="10" height="10" transform="matrix(0.866025 0.5 -0.866025 0.5 1002.66 412)" fill="#66BB6A"/>
<rect width="10" height="20" transform="matrix(0.866025 0.5 0 1 994 417)" fill="#388E3C"/>
<rect width="10" height="20" transform="matrix(0.866025 -0.5 0 1 1002.66 422)" fill="#1B5E20"/>
<rect width="10" height="10" transform="matrix(0.866025 0.5 -0.866025 0.5 283.66 402)" fill="#26A641"/>
<rect width="10" height="20" transform="matrix(0.866025 0.5 0 1 275 407)" fill="#26A641"/>
<rect width="10" height="20" transform="matrix(0.866025 -0.5 0 1 283.66 412)" fill="#006D32"/>
<rect width="10" height="10" transform="matrix(0.866025 0.5 -0.866025 0.5 283.66 402)" fill="#26A641"/>
<rect width="10" height="20" transform="matrix(0.866025 0.5 0 1 275 407)" fill="#26A641"/>
<rect width="10" height="20" transform="matrix(0.866025 -0.5 0 1 283.66 412)" fill="#006D32"/>
<rect width="10" height="10" transform="matrix(0.866025 0.5 -0.866025 0.5 503.66 536)" fill="#3E6030"/>
<rect width="10" height="20" transform="matrix(0.866025 0.5 0 1 495 541)" fill="#2B4520"/>
<rect width="10" height="20" transform="matrix(0.866025 -0.5 0 1 503.66 546)" fill="#1A2E15"/>
<rect width="10" height="10" transform="matrix(0.866025 0.5 -0.866025 0.5 503.66 536)" fill="#3E6030"/>
<rect width="10" height="20" transform="matrix(0.866025 0.5 0 1 495 541)" fill="#2B4520"/>
<rect width="10" height="20" transform="matrix(0.866025 -0.5 0 1 503.66 546)" fill="#1A2E15"/>
<rect width="10" height="10" transform="matrix(0.866025 0.5 -0.866025 0.5 358.66 669)" fill="#66BB6A"/>
<rect width="10" height="20" transform="matrix(0.866025 0.5 0 1 350 674)" fill="#388E3C"/>
<rect width="10" height="20" transform="matrix(0.866025 -0.5 0 1 358.66 679)" fill="#1B5E20"/>
<rect width="10" height="10" transform="matrix(0.866025 0.5 -0.866025 0.5 358.66 669)" fill="#66BB6A"/>
<rect width="10" height="20" transform="matrix(0.866025 0.5 0 1 350 674)" fill="#388E3C"/>
<rect width="10" height="20" transform="matrix(0.866025 -0.5 0 1 358.66 679)" fill="#1B5E20"/>
<rect width="10" height="10" transform="matrix(0.866025 0.5 -0.866025 0.5 255.66 507)" fill="#26A641"/>
<rect width="10" height="20" transform="matrix(0.866025 0.5 0 1 247 512)" fill="#26A641"/>
<rect width="10" height="20" transform="matrix(0.866025 -0.5 0 1 255.66 517)" fill="#006D32"/>
<rect width="10" height="10" transform="matrix(0.866025 0.5 -0.866025 0.5 255.66 507)" fill="#26A641"/>
<rect width="10" height="20" transform="matrix(0.866025 0.5 0 1 247 512)" fill="#26A641"/>
<rect width="10" height="20" transform="matrix(0.866025 -0.5 0 1 255.66 517)" fill="#006D32"/>
<rect width="10" height="10" transform="matrix(0.866025 0.5 -0.866025 0.5 711.66 657)" fill="#3E6030"/>
<rect width="10" height="20" transform="matrix(0.866025 0.5 0 1 703 662)" fill="#2B4520"/>
<rect width="10" height="20" transform="matrix(0.866025 -0.5 0 1 711.66 667)" fill="#1A2E15"/>
<rect width="10" height="10" transform="matrix(0.866025 0.5 -0.866025 0.5 711.66 657)" fill="#3E6030"/>
<rect width="10" height="20" transform="matrix(0.866025 0.5 0 1 703 662)" fill="#2B4520"/>
<rect width="10" height="20" transform="matrix(0.866025 -0.5 0 1 711.66 667)" fill="#1A2E15"/>
<rect width="10" height="10" transform="matrix(0.866025 0.5 -0.866025 0.5 413.66 478)" fill="#66BB6A"/>
<rect width="10" height="20" transform="matrix(0.866025 0.5 0 1 405 483)" fill="#388E3C"/>
<rect width="10" height="20" transform="matrix(0.866025 -0.5 0 1 413.66 488)" fill="#1B5E20"/>
<rect width="10" height="10" transform="matrix(0.866025 0.5 -0.866025 0.5 413.66 478)" fill="#66BB6A"/>
<rect width="10" height="20" transform="matrix(0.866025 0.5 0 1 405 483)" fill="#388E3C"/>
<rect width="10" height="20" transform="matrix(0.866025 -0.5 0 1 413.66 488)" fill="#1B5E20"/>
<rect width="10" height="10" transform="matrix(0.866025 0.5 -0.866025 0.5 2063.66 708)" fill="#66BB6A"/>
<rect width="10" height="20" transform="matrix(0.866025 0.5 0 1 2055 713)" fill="#388E3C"/>
<rect width="10" height="20" transform="matrix(0.866025 -0.5 0 1 2063.66 718)" fill="#1B5E20"/>
<rect width="10" height="10" transform="matrix(0.866025 0.5 -0.866025 0.5 2063.66 708)" fill="#66BB6A"/>
<rect width="10" height="20" transform="matrix(0.866025 0.5 0 1 2055 713)" fill="#388E3C"/>
<rect width="10" height="20" transform="matrix(0.866025 -0.5 0 1 2063.66 718)" fill="#1B5E20"/>
<rect width="10" height="10" transform="matrix(0.866025 0.5 -0.866025 0.5 1884.66 603)" fill="#66BB6A"/>
<rect width="10" height="20" transform="matrix(0.866025 0.5 0 1 1876 608)" fill="#388E3C"/>
<rect width="10" height="20" transform="matrix(0.866025 -0.5 0 1 1884.66 613)" fill="#1B5E20"/>
<rect width="10" height="10" transform="matrix(0.866025 0.5 -0.866025 0.5 1884.66 603)" fill="#66BB6A"/>
<rect width="10" height="20" transform="matrix(0.866025 0.5 0 1 1876 608)" fill="#388E3C"/>
<rect width="10" height="20" transform="matrix(0.866025 -0.5 0 1 1884.66 613)" fill="#1B5E20"/>
<rect width="10" height="10" transform="matrix(0.866025 0.5 -0.866025 0.5 1933.66 628)" fill="#66BB6A"/>
<rect width="10" height="20" transform="matrix(0.866025 0.5 0 1 1925 633)" fill="#388E3C"/>
<rect width="10" height="20" transform="matrix(0.866025 -0.5 0 1 1933.66 638)" fill="#1B5E20"/>
<rect width="10" height="10" transform="matrix(0.866025 0.5 -0.866025 0.5 1933.66 628)" fill="#66BB6A"/>
<rect width="10" height="20" transform="matrix(0.866025 0.5 0 1 1925 633)" fill="#388E3C"/>
<rect width="10" height="20" transform="matrix(0.866025 -0.5 0 1 1933.66 638)" fill="#1B5E20"/>
<rect width="10" height="10" transform="matrix(0.866025 0.5 -0.866025 0.5 2017.66 668)" fill="#66BB6A"/>
<rect width="10" height="20" transform="matrix(0.866025 0.5 0 1 2009 673)" fill="#388E3C"/>
<rect width="10" height="20" transform="matrix(0.866025 -0.5 0 1 2017.66 678)" fill="#1B5E20"/>
<rect width="10" height="10" transform="matrix(0.866025 0.5 -0.866025 0.5 2017.66 668)" fill="#66BB6A"/>
<rect width="10" height="20" transform="matrix(0.866025 0.5 0 1 2009 673)" fill="#388E3C"/>
<rect width="10" height="20" transform="matrix(0.866025 -0.5 0 1 2017.66 678)" fill="#1B5E20"/>
<rect width="10" height="10" transform="matrix(0.866025 0.5 -0.866025 0.5 1977.66 653)" fill="#66BB6A"/>
<rect width="10" height="20" transform="matrix(0.866025 0.5 0 1 1969 658)" fill="#388E3C"/>
<rect width="10" height="20" transform="matrix(0.866025 -0.5 0 1 1977.66 663)" fill="#1B5E20"/>
<rect width="10" height="10" transform="matrix(0.866025 0.5 -0.866025 0.5 1977.66 653)" fill="#66BB6A"/>
<rect width="10" height="20" transform="matrix(0.866025 0.5 0 1 1969 658)" fill="#388E3C"/>
<rect width="10" height="20" transform="matrix(0.866025 -0.5 0 1 1977.66 663)" fill="#1B5E20"/>
<rect width="10" height="10" transform="matrix(0.866025 0.5 -0.866025 0.5 2004.66 708)" fill="#66BB6A"/>
<rect width="10" height="20" transform="matrix(0.866025 0.5 0 1 1996 713)" fill="#388E3C"/>
<rect width="10" height="20" transform="matrix(0.866025 -0.5 0 1 2004.66 718)" fill="#1B5E20"/>
<rect width="10" height="10" transform="matrix(0.866025 0.5 -0.866025 0.5 2004.66 708)" fill="#66BB6A"/>
<rect width="10" height="20" transform="matrix(0.866025 0.5 0 1 1996 713)" fill="#388E3C"/>
<rect width="10" height="20" transform="matrix(0.866025 -0.5 0 1 2004.66 718)" fill="#1B5E20"/>
<rect width="10" height="10" transform="matrix(0.866025 0.5 -0.866025 0.5 829.66 43)" fill="#3E6030"/>
<rect width="10" height="20" transform="matrix(0.866025 0.5 0 1 821 48)" fill="#2B4520"/>
<rect width="10" height="20" transform="matrix(0.866025 -0.5 0 1 829.66 53)" fill="#1A2E15"/>
<rect width="10" height="10" transform="matrix(0.866025 0.5 -0.866025 0.5 829.66 43)" fill="#3E6030"/>
<rect width="10" height="20" transform="matrix(0.866025 0.5 0 1 821 48)" fill="#2B4520"/>
<rect width="10" height="20" transform="matrix(0.866025 -0.5 0 1 829.66 53)" fill="#1A2E15"/>
<rect width="10" height="10" transform="matrix(0.866025 0.5 -0.866025 0.5 869.66 58)" fill="#3E6030"/>
<rect width="10" height="20" transform="matrix(0.866025 0.5 0 1 861 63)" fill="#2B4520"/>
<rect width="10" height="20" transform="matrix(0.866025 -0.5 0 1 869.66 68)" fill="#1A2E15"/>
<rect width="10" height="10" transform="matrix(0.866025 0.5 -0.866025 0.5 869.66 58)" fill="#3E6030"/>
<rect width="10" height="20" transform="matrix(0.866025 0.5 0 1 861 63)" fill="#2B4520"/>
<rect width="10" height="20" transform="matrix(0.866025 -0.5 0 1 869.66 68)" fill="#1A2E15"/>
<rect width="10" height="10" transform="matrix(0.866025 0.5 -0.866025 0.5 994.66 123)" fill="#3E6030"/>
<rect width="10" height="20" transform="matrix(0.866025 0.5 0 1 986 128)" fill="#2B4520"/>
<rect width="10" height="20" transform="matrix(0.866025 -0.5 0 1 994.66 133)" fill="#1A2E15"/>
<rect width="10" height="10" transform="matrix(0.866025 0.5 -0.866025 0.5 994.66 123)" fill="#3E6030"/>
<rect width="10" height="20" transform="matrix(0.866025 0.5 0 1 986 128)" fill="#2B4520"/>
<rect width="10" height="20" transform="matrix(0.866025 -0.5 0 1 994.66 133)" fill="#1A2E15"/>
<rect width="10" height="20" transform="matrix(0.866025 -0.5 0 1 1040.66 128)" fill="#1A2E15"/>
<rect width="10" height="10" transform="matrix(0.866025 0.5 -0.866025 0.5 1040.66 118)" fill="#3E6030"/>
<rect width="10" height="20" transform="matrix(0.866025 0.5 0 1 1032 123)" fill="#2B4520"/>
<rect width="10" height="10" transform="matrix(0.866025 0.5 -0.866025 0.5 1040.66 118)" fill="#3E6030"/>
<rect width="10" height="20" transform="matrix(0.866025 0.5 0 1 1032 123)" fill="#2B4520"/>
<rect width="10" height="20" transform="matrix(0.866025 -0.5 0 1 1040.66 128)" fill="#1A2E15"/>
<rect width="10" height="10" transform="matrix(0.866025 0.5 -0.866025 0.5 994.66 93)" fill="#66BB6A"/>
<rect width="10" height="20" transform="matrix(0.866025 0.5 0 1 986 98)" fill="#388E3C"/>
<rect width="10" height="20" transform="matrix(0.866025 -0.5 0 1 994.66 103)" fill="#1B5E20"/>
<rect width="10" height="10" transform="matrix(0.866025 0.5 -0.866025 0.5 994.66 93)" fill="#66BB6A"/>
<rect width="10" height="20" transform="matrix(0.866025 0.5 0 1 986 98)" fill="#388E3C"/>
<rect width="10" height="20" transform="matrix(0.866025 -0.5 0 1 994.66 103)" fill="#1B5E20"/>
<rect width="10" height="10" transform="matrix(0.866025 0.5 -0.866025 0.5 864.66 13)" fill="#66BB6A"/>
<rect width="10" height="20" transform="matrix(0.866025 0.5 0 1 856 18)" fill="#388E3C"/>
<rect width="10" height="20" transform="matrix(0.866025 -0.5 0 1 864.66 23)" fill="#1B5E20"/>
<rect width="10" height="10" transform="matrix(0.866025 0.5 -0.866025 0.5 864.66 13)" fill="#66BB6A"/>
<rect width="10" height="20" transform="matrix(0.866025 0.5 0 1 856 18)" fill="#388E3C"/>
<rect width="10" height="20" transform="matrix(0.866025 -0.5 0 1 864.66 23)" fill="#1B5E20"/>
<rect width="10" height="10" transform="matrix(0.866025 0.5 -0.866025 0.5 948.66 53)" fill="#66BB6A"/>
<rect width="10" height="20" transform="matrix(0.866025 0.5 0 1 940 58)" fill="#388E3C"/>
<rect width="10" height="20" transform="matrix(0.866025 -0.5 0 1 948.66 63)" fill="#1B5E20"/>
<rect width="10" height="10" transform="matrix(0.866025 0.5 -0.866025 0.5 948.66 53)" fill="#66BB6A"/>
<rect width="10" height="20" transform="matrix(0.866025 0.5 0 1 940 58)" fill="#388E3C"/>
<rect width="10" height="20" transform="matrix(0.866025 -0.5 0 1 948.66 63)" fill="#1B5E20"/>
<rect width="10" height="10" transform="matrix(0.866025 0.5 -0.866025 0.5 908.66 38)" fill="#66BB6A"/>
<rect width="10" height="20" transform="matrix(0.866025 0.5 0 1 900 43)" fill="#388E3C"/>
<rect width="10" height="20" transform="matrix(0.866025 -0.5 0 1 908.66 48)" fill="#1B5E20"/>
<rect width="10" height="10" transform="matrix(0.866025 0.5 -0.866025 0.5 908.66 38)" fill="#66BB6A"/>
<rect width="10" height="20" transform="matrix(0.866025 0.5 0 1 900 43)" fill="#388E3C"/>
<rect width="10" height="20" transform="matrix(0.866025 -0.5 0 1 908.66 48)" fill="#1B5E20"/>
<rect width="10" height="10" transform="matrix(0.866025 0.5 -0.866025 0.5 935.66 93)" fill="#66BB6A"/>
<rect width="10" height="20" transform="matrix(0.866025 0.5 0 1 927 98)" fill="#388E3C"/>
<rect width="10" height="20" transform="matrix(0.866025 -0.5 0 1 935.66 103)" fill="#1B5E20"/>
<rect width="10" height="10" transform="matrix(0.866025 0.5 -0.866025 0.5 935.66 93)" fill="#66BB6A"/>
<rect width="10" height="20" transform="matrix(0.866025 0.5 0 1 927 98)" fill="#388E3C"/>
<rect width="10" height="20" transform="matrix(0.866025 -0.5 0 1 935.66 103)" fill="#1B5E20"/>
<rect width="10" height="10" transform="matrix(0.866025 0.5 -0.866025 0.5 1090.66 203)" fill="#3E6030"/>
<rect width="10" height="20" transform="matrix(0.866025 0.5 0 1 1082 208)" fill="#2B4520"/>
<rect width="10" height="20" transform="matrix(0.866025 -0.5 0 1 1090.66 213)" fill="#1A2E15"/>
<rect width="10" height="10" transform="matrix(0.866025 0.5 -0.866025 0.5 1090.66 203)" fill="#3E6030"/>
<rect width="10" height="20" transform="matrix(0.866025 0.5 0 1 1082 208)" fill="#2B4520"/>
<rect width="10" height="20" transform="matrix(0.866025 -0.5 0 1 1090.66 213)" fill="#1A2E15"/>
<rect width="10" height="10" transform="matrix(0.866025 0.5 -0.866025 0.5 1130.66 218)" fill="#3E6030"/>
<rect width="10" height="20" transform="matrix(0.866025 0.5 0 1 1122 223)" fill="#2B4520"/>
<rect width="10" height="20" transform="matrix(0.866025 -0.5 0 1 1130.66 228)" fill="#1A2E15"/>
<rect width="10" height="10" transform="matrix(0.866025 0.5 -0.866025 0.5 1130.66 218)" fill="#3E6030"/>
<rect width="10" height="20" transform="matrix(0.866025 0.5 0 1 1122 223)" fill="#2B4520"/>
<rect width="10" height="20" transform="matrix(0.866025 -0.5 0 1 1130.66 228)" fill="#1A2E15"/>
<rect width="10" height="10" transform="matrix(0.866025 0.5 -0.866025 0.5 1255.66 283)" fill="#3E6030"/>
<rect width="10" height="20" transform="matrix(0.866025 0.5 0 1 1247 288)" fill="#2B4520"/>
<rect width="10" height="20" transform="matrix(0.866025 -0.5 0 1 1255.66 293)" fill="#1A2E15"/>
<rect width="10" height="10" transform="matrix(0.866025 0.5 -0.866025 0.5 1255.66 283)" fill="#3E6030"/>
<rect width="10" height="20" transform="matrix(0.866025 0.5 0 1 1247 288)" fill="#2B4520"/>
<rect width="10" height="20" transform="matrix(0.866025 -0.5 0 1 1255.66 293)" fill="#1A2E15"/>
<rect width="10" height="20" transform="matrix(0.866025 -0.5 0 1 1301.66 288)" fill="#1A2E15"/>
<rect width="10" height="10" transform="matrix(0.866025 0.5 -0.866025 0.5 1301.66 278)" fill="#3E6030"/>
<rect width="10" height="20" transform="matrix(0.866025 0.5 0 1 1293 283)" fill="#2B4520"/>
<rect width="10" height="10" transform="matrix(0.866025 0.5 -0.866025 0.5 1301.66 278)" fill="#3E6030"/>
<rect width="10" height="20" transform="matrix(0.866025 0.5 0 1 1293 283)" fill="#2B4520"/>
<rect width="10" height="20" transform="matrix(0.866025 -0.5 0 1 1301.66 288)" fill="#1A2E15"/>
<rect width="10" height="10" transform="matrix(0.866025 0.5 -0.866025 0.5 1255.66 253)" fill="#66BB6A"/>
<rect width="10" height="20" transform="matrix(0.866025 0.5 0 1 1247 258)" fill="#388E3C"/>
<rect width="10" height="20" transform="matrix(0.866025 -0.5 0 1 1255.66 263)" fill="#1B5E20"/>
<rect width="10" height="10" transform="matrix(0.866025 0.5 -0.866025 0.5 1255.66 253)" fill="#66BB6A"/>
<rect width="10" height="20" transform="matrix(0.866025 0.5 0 1 1247 258)" fill="#388E3C"/>
<rect width="10" height="20" transform="matrix(0.866025 -0.5 0 1 1255.66 263)" fill="#1B5E20"/>
<rect width="10" height="10" transform="matrix(0.866025 0.5 -0.866025 0.5 1076.66 148)" fill="#66BB6A"/>
<rect width="10" height="20" transform="matrix(0.866025 0.5 0 1 1068 153)" fill="#388E3C"/>
<rect width="10" height="20" transform="matrix(0.866025 -0.5 0 1 1076.66 158)" fill="#1B5E20"/>
<rect width="10" height="10" transform="matrix(0.866025 0.5 -0.866025 0.5 1076.66 148)" fill="#66BB6A"/>
<rect width="10" height="20" transform="matrix(0.866025 0.5 0 1 1068 153)" fill="#388E3C"/>
<rect width="10" height="20" transform="matrix(0.866025 -0.5 0 1 1076.66 158)" fill="#1B5E20"/>
<rect width="10" height="10" transform="matrix(0.866025 0.5 -0.866025 0.5 1125.66 173)" fill="#66BB6A"/>
<rect width="10" height="20" transform="matrix(0.866025 0.5 0 1 1117 178)" fill="#388E3C"/>
<rect width="10" height="20" transform="matrix(0.866025 -0.5 0 1 1125.66 183)" fill="#1B5E20"/>
<rect width="10" height="10" transform="matrix(0.866025 0.5 -0.866025 0.5 1125.66 173)" fill="#66BB6A"/>
<rect width="10" height="20" transform="matrix(0.866025 0.5 0 1 1117 178)" fill="#388E3C"/>
<rect width="10" height="20" transform="matrix(0.866025 -0.5 0 1 1125.66 183)" fill="#1B5E20"/>
<rect width="10" height="10" transform="matrix(0.866025 0.5 -0.866025 0.5 1209.66 213)" fill="#66BB6A"/>
<rect width="10" height="20" transform="matrix(0.866025 0.5 0 1 1201 218)" fill="#388E3C"/>
<rect width="10" height="20" transform="matrix(0.866025 -0.5 0 1 1209.66 223)" fill="#1B5E20"/>
<rect width="10" height="10" transform="matrix(0.866025 0.5 -0.866025 0.5 1209.66 213)" fill="#66BB6A"/>
<rect width="10" height="20" transform="matrix(0.866025 0.5 0 1 1201 218)" fill="#388E3C"/>
<rect width="10" height="20" transform="matrix(0.866025 -0.5 0 1 1209.66 223)" fill="#1B5E20"/>
<rect width="10" height="10" transform="matrix(0.866025 0.5 -0.866025 0.5 1169.66 198)" fill="#66BB6A"/>
<rect width="10" height="20" transform="matrix(0.866025 0.5 0 1 1161 203)" fill="#388E3C"/>
<rect width="10" height="20" transform="matrix(0.866025 -0.5 0 1 1169.66 208)" fill="#1B5E20"/>
<rect width="10" height="10" transform="matrix(0.866025 0.5 -0.866025 0.5 1169.66 198)" fill="#66BB6A"/>
<rect width="10" height="20" transform="matrix(0.866025 0.5 0 1 1161 203)" fill="#388E3C"/>
<rect width="10" height="20" transform="matrix(0.866025 -0.5 0 1 1169.66 208)" fill="#1B5E20"/>
<rect width="10" height="10" transform="matrix(0.866025 0.5 -0.866025 0.5 1196.66 253)" fill="#66BB6A"/>
<rect width="10" height="20" transform="matrix(0.866025 0.5 0 1 1188 258)" fill="#388E3C"/>
<rect width="10" height="20" transform="matrix(0.866025 -0.5 0 1 1196.66 263)" fill="#1B5E20"/>
<rect width="10" height="10" transform="matrix(0.866025 0.5 -0.866025 0.5 1196.66 253)" fill="#66BB6A"/>
<rect width="10" height="20" transform="matrix(0.866025 0.5 0 1 1188 258)" fill="#388E3C"/>
<rect width="10" height="20" transform="matrix(0.866025 -0.5 0 1 1196.66 263)" fill="#1B5E20"/>
<rect width="10" height="10" transform="matrix(0.866025 0.5 -0.866025 0.5 1360.66 358)" fill="#3E6030"/>
<rect width="10" height="20" transform="matrix(0.866025 0.5 0 1 1352 363)" fill="#2B4520"/>
<rect width="10" height="20" transform="matrix(0.866025 -0.5 0 1 1360.66 368)" fill="#1A2E15"/>
<rect width="10" height="10" transform="matrix(0.866025 0.5 -0.866025 0.5 1360.66 358)" fill="#3E6030"/>
<rect width="10" height="20" transform="matrix(0.866025 0.5 0 1 1352 363)" fill="#2B4520"/>
<rect width="10" height="20" transform="matrix(0.866025 -0.5 0 1 1360.66 368)" fill="#1A2E15"/>
<rect width="10" height="10" transform="matrix(0.866025 0.5 -0.866025 0.5 1400.66 373)" fill="#3E6030"/>
<rect width="10" height="20" transform="matrix(0.866025 0.5 0 1 1392 378)" fill="#2B4520"/>
<rect width="10" height="20" transform="matrix(0.866025 -0.5 0 1 1400.66 383)" fill="#1A2E15"/>
<rect width="10" height="10" transform="matrix(0.866025 0.5 -0.866025 0.5 1400.66 373)" fill="#3E6030"/>
<rect width="10" height="20" transform="matrix(0.866025 0.5 0 1 1392 378)" fill="#2B4520"/>
<rect width="10" height="20" transform="matrix(0.866025 -0.5 0 1 1400.66 383)" fill="#1A2E15"/>
<rect width="10" height="10" transform="matrix(0.866025 0.5 -0.866025 0.5 1525.66 438)" fill="#3E6030"/>
<rect width="10" height="20" transform="matrix(0.866025 0.5 0 1 1517 443)" fill="#2B4520"/>
<rect width="10" height="20" transform="matrix(0.866025 -0.5 0 1 1525.66 448)" fill="#1A2E15"/>
<rect width="10" height="10" transform="matrix(0.866025 0.5 -0.866025 0.5 1525.66 438)" fill="#3E6030"/>
<rect width="10" height="20" transform="matrix(0.866025 0.5 0 1 1517 443)" fill="#2B4520"/>
<rect width="10" height="20" transform="matrix(0.866025 -0.5 0 1 1525.66 448)" fill="#1A2E15"/>
<rect width="10" height="20" transform="matrix(0.866025 -0.5 0 1 1571.66 443)" fill="#1A2E15"/>
<rect width="10" height="10" transform="matrix(0.866025 0.5 -0.866025 0.5 1571.66 433)" fill="#3E6030"/>
<rect width="10" height="20" transform="matrix(0.866025 0.5 0 1 1563 438)" fill="#2B4520"/>
<rect width="10" height="10" transform="matrix(0.866025 0.5 -0.866025 0.5 1571.66 433)" fill="#3E6030"/>
<rect width="10" height="20" transform="matrix(0.866025 0.5 0 1 1563 438)" fill="#2B4520"/>
<rect width="10" height="20" transform="matrix(0.866025 -0.5 0 1 1571.66 443)" fill="#1A2E15"/>
<rect width="10" height="10" transform="matrix(0.866025 0.5 -0.866025 0.5 1525.66 408)" fill="#66BB6A"/>
<rect width="10" height="20" transform="matrix(0.866025 0.5 0 1 1517 413)" fill="#388E3C"/>
<rect width="10" height="20" transform="matrix(0.866025 -0.5 0 1 1525.66 418)" fill="#1B5E20"/>
<rect width="10" height="10" transform="matrix(0.866025 0.5 -0.866025 0.5 1525.66 408)" fill="#66BB6A"/>
<rect width="10" height="20" transform="matrix(0.866025 0.5 0 1 1517 413)" fill="#388E3C"/>
<rect width="10" height="20" transform="matrix(0.866025 -0.5 0 1 1525.66 418)" fill="#1B5E20"/>
<rect width="10" height="10" transform="matrix(0.866025 0.5 -0.866025 0.5 1346.66 303)" fill="#66BB6A"/>
<rect width="10" height="20" transform="matrix(0.866025 0.5 0 1 1338 308)" fill="#388E3C"/>
<rect width="10" height="20" transform="matrix(0.866025 -0.5 0 1 1346.66 313)" fill="#1B5E20"/>
<rect width="10" height="10" transform="matrix(0.866025 0.5 -0.866025 0.5 1346.66 303)" fill="#66BB6A"/>
<rect width="10" height="20" transform="matrix(0.866025 0.5 0 1 1338 308)" fill="#388E3C"/>
<rect width="10" height="20" transform="matrix(0.866025 -0.5 0 1 1346.66 313)" fill="#1B5E20"/>
<rect width="10" height="10" transform="matrix(0.866025 0.5 -0.866025 0.5 1395.66 328)" fill="#66BB6A"/>
<rect width="10" height="20" transform="matrix(0.866025 0.5 0 1 1387 333)" fill="#388E3C"/>
<rect width="10" height="20" transform="matrix(0.866025 -0.5 0 1 1395.66 338)" fill="#1B5E20"/>
<rect width="10" height="10" transform="matrix(0.866025 0.5 -0.866025 0.5 1395.66 328)" fill="#66BB6A"/>
<rect width="10" height="20" transform="matrix(0.866025 0.5 0 1 1387 333)" fill="#388E3C"/>
<rect width="10" height="20" transform="matrix(0.866025 -0.5 0 1 1395.66 338)" fill="#1B5E20"/>
<rect width="10" height="10" transform="matrix(0.866025 0.5 -0.866025 0.5 1479.66 368)" fill="#66BB6A"/>
<rect width="10" height="20" transform="matrix(0.866025 0.5 0 1 1471 373)" fill="#388E3C"/>
<rect width="10" height="20" transform="matrix(0.866025 -0.5 0 1 1479.66 378)" fill="#1B5E20"/>
<rect width="10" height="10" transform="matrix(0.866025 0.5 -0.866025 0.5 1479.66 368)" fill="#66BB6A"/>
<rect width="10" height="20" transform="matrix(0.866025 0.5 0 1 1471 373)" fill="#388E3C"/>
<rect width="10" height="20" transform="matrix(0.866025 -0.5 0 1 1479.66 378)" fill="#1B5E20"/>
<rect width="10" height="10" transform="matrix(0.866025 0.5 -0.866025 0.5 1439.66 353)" fill="#66BB6A"/>
<rect width="10" height="20" transform="matrix(0.866025 0.5 0 1 1431 358)" fill="#388E3C"/>
<rect width="10" height="20" transform="matrix(0.866025 -0.5 0 1 1439.66 363)" fill="#1B5E20"/>
<rect width="10" height="10" transform="matrix(0.866025 0.5 -0.866025 0.5 1439.66 353)" fill="#66BB6A"/>
<rect width="10" height="20" transform="matrix(0.866025 0.5 0 1 1431 358)" fill="#388E3C"/>
<rect width="10" height="20" transform="matrix(0.866025 -0.5 0 1 1439.66 363)" fill="#1B5E20"/>
<rect width="10" height="10" transform="matrix(0.866025 0.5 -0.866025 0.5 1466.66 408)" fill="#66BB6A"/>
<rect width="10" height="20" transform="matrix(0.866025 0.5 0 1 1458 413)" fill="#388E3C"/>
<rect width="10" height="20" transform="matrix(0.866025 -0.5 0 1 1466.66 418)" fill="#1B5E20"/>
<rect width="10" height="10" transform="matrix(0.866025 0.5 -0.866025 0.5 1466.66 408)" fill="#66BB6A"/>
<rect width="10" height="20" transform="matrix(0.866025 0.5 0 1 1458 413)" fill="#388E3C"/>
<rect width="10" height="20" transform="matrix(0.866025 -0.5 0 1 1466.66 418)" fill="#1B5E20"/>
<rect width="10" height="10" transform="matrix(0.866025 0.5 -0.866025 0.5 1627.66 518)" fill="#3E6030"/>
<rect width="10" height="20" transform="matrix(0.866025 0.5 0 1 1619 523)" fill="#2B4520"/>
<rect width="10" height="20" transform="matrix(0.866025 -0.5 0 1 1627.66 528)" fill="#1A2E15"/>
<rect width="10" height="10" transform="matrix(0.866025 0.5 -0.866025 0.5 1627.66 518)" fill="#3E6030"/>
<rect width="10" height="20" transform="matrix(0.866025 0.5 0 1 1619 523)" fill="#2B4520"/>
<rect width="10" height="20" transform="matrix(0.866025 -0.5 0 1 1627.66 528)" fill="#1A2E15"/>
<rect width="10" height="10" transform="matrix(0.866025 0.5 -0.866025 0.5 1667.66 533)" fill="#3E6030"/>
<rect width="10" height="20" transform="matrix(0.866025 0.5 0 1 1659 538)" fill="#2B4520"/>
<rect width="10" height="20" transform="matrix(0.866025 -0.5 0 1 1667.66 543)" fill="#1A2E15"/>
<rect width="10" height="10" transform="matrix(0.866025 0.5 -0.866025 0.5 1667.66 533)" fill="#3E6030"/>
<rect width="10" height="20" transform="matrix(0.866025 0.5 0 1 1659 538)" fill="#2B4520"/>
<rect width="10" height="20" transform="matrix(0.866025 -0.5 0 1 1667.66 543)" fill="#1A2E15"/>
<rect width="10" height="10" transform="matrix(0.866025 0.5 -0.866025 0.5 1792.66 598)" fill="#3E6030"/>
<rect width="10" height="20" transform="matrix(0.866025 0.5 0 1 1784 603)" fill="#2B4520"/>
<rect width="10" height="20" transform="matrix(0.866025 -0.5 0 1 1792.66 608)" fill="#1A2E15"/>
<rect width="10" height="10" transform="matrix(0.866025 0.5 -0.866025 0.5 1792.66 598)" fill="#3E6030"/>
<rect width="10" height="20" transform="matrix(0.866025 0.5 0 1 1784 603)" fill="#2B4520"/>
<rect width="10" height="20" transform="matrix(0.866025 -0.5 0 1 1792.66 608)" fill="#1A2E15"/>
<rect width="10" height="20" transform="matrix(0.866025 -0.5 0 1 1838.66 603)" fill="#1A2E15"/>
<rect width="10" height="10" transform="matrix(0.866025 0.5 -0.866025 0.5 1838.66 593)" fill="#3E6030"/>
<rect width="10" height="20" transform="matrix(0.866025 0.5 0 1 1830 598)" fill="#2B4520"/>
<rect width="10" height="10" transform="matrix(0.866025 0.5 -0.866025 0.5 1838.66 593)" fill="#3E6030"/>
<rect width="10" height="20" transform="matrix(0.866025 0.5 0 1 1830 598)" fill="#2B4520"/>
<rect width="10" height="20" transform="matrix(0.866025 -0.5 0 1 1838.66 603)" fill="#1A2E15"/>
<rect width="10" height="10" transform="matrix(0.866025 0.5 -0.866025 0.5 1792.66 568)" fill="#66BB6A"/>
<rect width="10" height="20" transform="matrix(0.866025 0.5 0 1 1784 573)" fill="#388E3C"/>
<rect width="10" height="20" transform="matrix(0.866025 -0.5 0 1 1792.66 578)" fill="#1B5E20"/>
<rect width="10" height="10" transform="matrix(0.866025 0.5 -0.866025 0.5 1792.66 568)" fill="#66BB6A"/>
<rect width="10" height="20" transform="matrix(0.866025 0.5 0 1 1784 573)" fill="#388E3C"/>
<rect width="10" height="20" transform="matrix(0.866025 -0.5 0 1 1792.66 578)" fill="#1B5E20"/>
<rect width="10" height="10" transform="matrix(0.866025 0.5 -0.866025 0.5 1613.66 463)" fill="#66BB6A"/>
<rect width="10" height="20" transform="matrix(0.866025 0.5 0 1 1605 468)" fill="#388E3C"/>
<rect width="10" height="20" transform="matrix(0.866025 -0.5 0 1 1613.66 473)" fill="#1B5E20"/>
<rect width="10" height="10" transform="matrix(0.866025 0.5 -0.866025 0.5 1613.66 463)" fill="#66BB6A"/>
<rect width="10" height="20" transform="matrix(0.866025 0.5 0 1 1605 468)" fill="#388E3C"/>
<rect width="10" height="20" transform="matrix(0.866025 -0.5 0 1 1613.66 473)" fill="#1B5E20"/>
<rect width="10" height="10" transform="matrix(0.866025 0.5 -0.866025 0.5 1662.66 488)" fill="#66BB6A"/>
<rect width="10" height="20" transform="matrix(0.866025 0.5 0 1 1654 493)" fill="#388E3C"/>
<rect width="10" height="20" transform="matrix(0.866025 -0.5 0 1 1662.66 498)" fill="#1B5E20"/>
<rect width="10" height="10" transform="matrix(0.866025 0.5 -0.866025 0.5 1662.66 488)" fill="#66BB6A"/>
<rect width="10" height="20" transform="matrix(0.866025 0.5 0 1 1654 493)" fill="#388E3C"/>
<rect width="10" height="20" transform="matrix(0.866025 -0.5 0 1 1662.66 498)" fill="#1B5E20"/>
<rect width="10" height="10" transform="matrix(0.866025 0.5 -0.866025 0.5 1746.66 528)" fill="#66BB6A"/>
<rect width="10" height="20" transform="matrix(0.866025 0.5 0 1 1738 533)" fill="#388E3C"/>
<rect width="10" height="20" transform="matrix(0.866025 -0.5 0 1 1746.66 538)" fill="#1B5E20"/>
<rect width="10" height="10" transform="matrix(0.866025 0.5 -0.866025 0.5 1746.66 528)" fill="#66BB6A"/>
<rect width="10" height="20" transform="matrix(0.866025 0.5 0 1 1738 533)" fill="#388E3C"/>
<rect width="10" height="20" transform="matrix(0.866025 -0.5 0 1 1746.66 538)" fill="#1B5E20"/>
<rect width="10" height="10" transform="matrix(0.866025 0.5 -0.866025 0.5 1706.66 513)" fill="#66BB6A"/>
<rect width="10" height="20" transform="matrix(0.866025 0.5 0 1 1698 518)" fill="#388E3C"/>
<rect width="10" height="20" transform="matrix(0.866025 -0.5 0 1 1706.66 523)" fill="#1B5E20"/>
<rect width="10" height="10" transform="matrix(0.866025 0.5 -0.866025 0.5 1706.66 513)" fill="#66BB6A"/>
<rect width="10" height="20" transform="matrix(0.866025 0.5 0 1 1698 518)" fill="#388E3C"/>
<rect width="10" height="20" transform="matrix(0.866025 -0.5 0 1 1706.66 523)" fill="#1B5E20"/>
<rect width="10" height="10" transform="matrix(0.866025 0.5 -0.866025 0.5 1733.66 568)" fill="#66BB6A"/>
<rect width="10" height="20" transform="matrix(0.866025 0.5 0 1 1725 573)" fill="#388E3C"/>
<rect width="10" height="20" transform="matrix(0.866025 -0.5 0 1 1733.66 578)" fill="#1B5E20"/>
<rect width="10" height="10" transform="matrix(0.866025 0.5 -0.866025 0.5 1733.66 568)" fill="#66BB6A"/>
<rect width="10" height="20" transform="matrix(0.866025 0.5 0 1 1725 573)" fill="#388E3C"/>
<rect width="10" height="20" transform="matrix(0.866025 -0.5 0 1 1733.66 578)" fill="#1B5E20"/>
</svg>
