<svg width="260" height="366" viewBox="0 0 260 366" fill="none" xmlns="http://www.w3.org/2000/svg">
<mask id="mask0_2_3553" style="mask-type:alpha" maskUnits="userSpaceOnUse" x="0" y="216" width="260" height="150">
<rect width="150" height="150" transform="matrix(0.866025 0.5 -0.866025 0.5 129.904 216)" fill="#D9D9D9"/>
</mask>
<g mask="url(#mask0_2_3553)">
<rect width="150" height="20" transform="matrix(0.866025 -0.5 0 1 129.904 346)" fill="white"/>
<rect width="150" height="20" transform="matrix(0.866025 0.5 0 1 0 271)" fill="#D9D9D9"/>
<rect width="150" height="150" transform="matrix(0.866025 0.5 -0.866025 0.5 129.904 196)" fill="#B3B3B3"/>
</g>
<rect width="100" height="100" transform="matrix(0.866025 0.5 -0.866025 0.5 128.603 212)" fill="#FF3300"/>
<rect width="100" height="20" transform="matrix(0.866025 0.5 0 1 42 262)" fill="#CC2900"/>
<rect width="100" height="20" transform="matrix(0.866025 -0.5 0 1 128.603 312)" fill="#991F00"/>
<mask id="mask1_2_3553" style="mask-type:alpha" maskUnits="userSpaceOnUse" x="42" y="213" width="174" height="100">
<rect width="100" height="100" transform="matrix(0.866025 0.5 -0.866025 0.5 128.603 213)" fill="#D9D9D9"/>
</mask>
<g mask="url(#mask1_2_3553)">
<rect width="100" height="20" transform="matrix(0.866025 -0.5 0 1 128.603 293)" fill="#991F00"/>
<rect width="100" height="20" transform="matrix(0.866025 0.5 0 1 42 243)" fill="#CC2900"/>
<rect width="100" height="100" transform="matrix(0.866025 0.5 -0.866025 0.5 128.603 193)" fill="#FF3300"/>
</g>
<path d="M80.0525 220C83.8789 217.791 90.0826 217.791 93.9089 220L106.033 227C109.86 229.209 109.86 232.791 106.033 235L93.9089 242C90.0826 244.209 83.8789 244.209 80.0525 242L67.9282 235C64.1018 232.791 64.1018 229.209 67.9282 227L80.0525 220Z" fill="white"/>
<rect width="14" height="20" transform="matrix(0.866025 0.5 0 1 67.9282 235)" fill="#D9D9D9"/>
<rect width="14" height="20" transform="matrix(0.866025 -0.5 0 1 93.9089 242)" fill="#B3B3B3"/>
<path d="M65.0583 231C65.0583 232.562 66.155 233.976 67.9281 235V255C66.155 253.976 65.0583 252.562 65.0583 251V231Z" fill="#D9D9D9"/>
<path d="M80.0525 242C83.8788 244.209 90.0826 244.209 93.9089 242V262C90.0826 264.209 83.8788 264.209 80.0525 262V242Z" fill="#B3B3B3"/>
<path d="M108.903 231C108.903 232.562 107.806 233.976 106.033 235V255C107.806 253.976 108.903 252.562 108.903 251V231Z" fill="#B3B3B3"/>
<path d="M121.053 244C124.879 241.791 131.083 241.791 134.909 244L147.033 251C150.86 253.209 150.86 256.791 147.033 259L134.909 266C131.083 268.209 124.879 268.209 121.053 266L108.928 259C105.102 256.791 105.102 253.209 108.928 251L121.053 244Z" fill="white"/>
<rect width="14" height="20" transform="matrix(0.866025 0.5 0 1 108.928 259)" fill="#D9D9D9"/>
<rect width="14" height="20" transform="matrix(0.866025 -0.5 0 1 134.909 266)" fill="#B3B3B3"/>
<path d="M106.058 255C106.058 256.562 107.155 257.976 108.928 259V279C107.155 277.976 106.058 276.562 106.058 275V255Z" fill="#D9D9D9"/>
<path d="M121.052 266C124.879 268.209 131.083 268.209 134.909 266V286C131.083 288.209 124.879 288.209 121.052 286V266Z" fill="#B3B3B3"/>
<path d="M149.903 255C149.903 256.562 148.806 257.976 147.033 259V279C148.806 277.976 149.903 276.562 149.903 275V255Z" fill="#B3B3B3"/>
<path d="M80.0525 220C83.8789 217.791 90.0826 217.791 93.9089 220L106.033 227C109.86 229.209 109.86 232.791 106.033 235L93.9089 242C90.0826 244.209 83.8789 244.209 80.0525 242L67.9282 235C64.1018 232.791 64.1018 229.209 67.9282 227L80.0525 220Z" fill="white"/>
<rect width="14" height="20" transform="matrix(0.866025 0.5 0 1 67.9282 235)" fill="#D9D9D9"/>
<rect width="14" height="20" transform="matrix(0.866025 -0.5 0 1 93.9089 242)" fill="#B3B3B3"/>
<path d="M65.0583 231C65.0583 232.562 66.155 233.976 67.9281 235V255C66.155 253.976 65.0583 252.562 65.0583 251V231Z" fill="#D9D9D9"/>
<path d="M80.0525 242C83.8788 244.209 90.0826 244.209 93.9089 242V262C90.0826 264.209 83.8788 264.209 80.0525 262V242Z" fill="#B3B3B3"/>
<path d="M108.903 231C108.903 232.562 107.806 233.976 106.033 235V255C107.806 253.976 108.903 252.562 108.903 251V231Z" fill="#B3B3B3"/>
<path d="M165.053 220C168.879 217.791 175.083 217.791 178.909 220L191.033 227C194.86 229.209 194.86 232.791 191.033 235L178.909 242C175.083 244.209 168.879 244.209 165.053 242L152.928 235C149.102 232.791 149.102 229.209 152.928 227L165.053 220Z" fill="white"/>
<rect width="14" height="20" transform="matrix(0.866025 0.5 0 1 152.928 235)" fill="#D9D9D9"/>
<rect width="14" height="20" transform="matrix(0.866025 -0.5 0 1 178.909 242)" fill="#B3B3B3"/>
<path d="M150.058 231C150.058 232.562 151.155 233.976 152.928 235V255C151.155 253.976 150.058 252.562 150.058 251V231Z" fill="#D9D9D9"/>
<path d="M165.052 242C168.879 244.209 175.083 244.209 178.909 242V262C175.083 264.209 168.879 264.209 165.052 262V242Z" fill="#B3B3B3"/>
<path d="M193.903 231C193.903 232.562 192.806 233.976 191.033 235V255C192.806 253.976 193.903 252.562 193.903 251V231Z" fill="#B3B3B3"/>
<path d="M123.153 175.9C126.979 173.691 133.183 173.691 137.009 175.9L192.435 207.9C196.261 210.109 196.261 213.691 192.435 215.9L137.009 247.9C133.183 250.109 126.979 250.109 123.153 247.9L67.727 215.9C63.9006 213.691 63.9006 210.109 67.727 207.9L123.153 175.9Z" fill="#FF3300"/>
<rect width="64" height="20" transform="matrix(0.866025 0.5 0 1 67.7271 215.9)" fill="#CC2900"/>
<rect width="64" height="20" transform="matrix(0.866025 -0.5 0 1 137.009 247.9)" fill="#991F00"/>
<path d="M64.8572 211.9C64.8572 213.462 65.9539 214.876 67.7269 215.9V235.9C65.9539 234.876 64.8572 233.462 64.8572 231.9V211.9Z" fill="#CC2900"/>
<path d="M123.153 247.9C126.979 250.109 133.183 250.109 137.009 247.9V267.9C133.183 270.109 126.979 270.109 123.153 267.9V247.9Z" fill="#991F00"/>
<path d="M195.304 211.9C195.304 213.462 194.208 214.876 192.435 215.9V235.9C194.208 234.876 195.304 233.462 195.304 231.9V211.9Z" fill="#991F00"/>
<path d="M124.33 210.5C126.721 209.119 130.599 209.119 132.99 210.5V210.5C135.382 211.881 135.382 214.119 132.99 215.5V215.5C130.599 216.881 126.721 216.881 124.33 215.5V215.5C121.939 214.119 121.939 211.881 124.33 210.5V210.5Z" fill="white"/>
<path d="M122.537 213C122.537 213.976 123.222 214.86 124.33 215.5V245.5C123.222 244.86 122.537 243.976 122.537 243V213Z" fill="#D9D9D9"/>
<path d="M124.33 215.5C126.722 216.881 130.599 216.881 132.99 215.5V245.5C130.599 246.881 126.722 246.881 124.33 245.5V215.5Z" fill="#B3B3B3"/>
<path d="M134.784 213C134.784 213.976 134.099 214.86 132.99 215.5V245.5C134.099 244.86 134.784 243.976 134.784 243V213Z" fill="#B3B3B3"/>
<path d="M68.33 179.5C70.7215 178.119 74.5988 178.119 76.9903 179.5V179.5C79.3817 180.881 79.3817 183.119 76.9903 184.5V184.5C74.5988 185.881 70.7215 185.881 68.33 184.5V184.5C65.9386 183.119 65.9386 180.881 68.33 179.5V179.5Z" fill="white"/>
<path d="M66.5366 182C66.5366 182.976 67.222 183.86 68.3302 184.5V214.5C67.222 213.86 66.5366 212.976 66.5366 212V182Z" fill="#D9D9D9"/>
<path d="M68.3301 184.5C70.7215 185.881 74.5989 185.881 76.9903 184.5V214.5C74.5989 215.881 70.7215 215.881 68.3301 214.5V184.5Z" fill="#B3B3B3"/>
<path d="M78.7841 182C78.7841 182.976 78.0987 183.86 76.9905 184.5V214.5C78.0987 213.86 78.7841 212.976 78.7841 212V182Z" fill="#B3B3B3"/>
<path d="M182.33 178.5C184.721 177.119 188.599 177.119 190.99 178.5V178.5C193.382 179.881 193.382 182.119 190.99 183.5V183.5C188.599 184.881 184.721 184.881 182.33 183.5V183.5C179.939 182.119 179.939 179.881 182.33 178.5V178.5Z" fill="white"/>
<path d="M180.537 181C180.537 181.976 181.222 182.86 182.33 183.5V213.5C181.222 212.86 180.537 211.976 180.537 211V181Z" fill="#D9D9D9"/>
<path d="M182.33 183.5C184.722 184.881 188.599 184.881 190.99 183.5V213.5C188.599 214.881 184.722 214.881 182.33 213.5V183.5Z" fill="#B3B3B3"/>
<path d="M192.784 181C192.784 181.976 192.099 182.86 190.99 183.5V213.5C192.099 212.86 192.784 211.976 192.784 211V181Z" fill="#B3B3B3"/>
<path d="M182.33 176.5C184.721 175.119 188.599 175.119 190.99 176.5V176.5C193.382 177.881 193.382 180.119 190.99 181.5V181.5C188.599 182.881 184.721 182.881 182.33 181.5V181.5C179.939 180.119 179.939 177.881 182.33 176.5V176.5Z" fill="white"/>
<path d="M122.354 124C126.18 121.791 132.384 121.791 136.21 124L191.636 156C195.462 158.209 195.462 161.791 191.636 164L136.21 196C132.384 198.209 126.18 198.209 122.354 196L66.9282 164C63.1018 161.791 63.1018 158.209 66.9282 156L122.354 124Z" fill="#FF3300"/>
<rect width="64" height="20" transform="matrix(0.866025 0.5 0 1 66.9282 164)" fill="#CC2900"/>
<rect width="64" height="20" transform="matrix(0.866025 -0.5 0 1 136.21 196)" fill="#991F00"/>
<path d="M64.0583 160C64.0583 161.562 65.155 162.976 66.9281 164V184C65.155 182.976 64.0583 181.562 64.0583 180V160Z" fill="#CC2900"/>
<path d="M122.354 196C126.18 198.209 132.384 198.209 136.21 196V216C132.384 218.209 126.18 218.209 122.354 216V196Z" fill="#991F00"/>
<path d="M194.505 160C194.505 161.562 193.409 162.976 191.636 164V184C193.409 182.976 194.505 181.562 194.505 180V160Z" fill="#991F00"/>
<rect width="60" height="60" transform="matrix(0.866025 0.5 -0.866025 0.5 128.961 110)" fill="white"/>
<rect width="60" height="20" transform="matrix(0.866025 0.5 0 1 77 140)" fill="#D9D9D9"/>
<rect width="60" height="20" transform="matrix(0.866025 -0.5 0 1 128.961 170)" fill="#B3B3B3"/>
<path d="M122.373 100C126.199 97.7909 132.403 97.7909 136.229 100L165.674 117C169.501 119.209 169.501 122.791 165.674 125L136.229 142C132.403 144.209 126.199 144.209 122.373 142L92.9282 125C89.1019 122.791 89.1019 119.209 92.9282 117L122.373 100Z" fill="#FF3300"/>
<rect width="34" height="20" transform="matrix(0.866025 0.5 0 1 92.9282 125)" fill="#CC2900"/>
<rect width="34" height="20" transform="matrix(0.866025 -0.5 0 1 136.229 142)" fill="#991F00"/>
<path d="M90.0583 121C90.0583 122.562 91.155 123.976 92.9281 125V145C91.155 143.976 90.0583 142.562 90.0583 141V121Z" fill="#CC2900"/>
<path d="M122.373 142C126.199 144.209 132.403 144.209 136.229 142V162C132.403 164.209 126.199 164.209 122.373 162V142Z" fill="#991F00"/>
<path d="M168.544 121C168.544 122.562 167.447 123.976 165.674 125V145C167.447 143.976 168.544 142.562 168.544 141V121Z" fill="#991F00"/>
<rect width="40" height="40" transform="matrix(0.866025 0.5 -0.866025 0.5 128.641 81)" fill="white"/>
<rect width="40" height="20" transform="matrix(0.866025 0.5 0 1 94 101)" fill="#D9D9D9"/>
<rect width="40" height="20" transform="matrix(0.866025 -0.5 0 1 128.641 121)" fill="#B3B3B3"/>
<path d="M121.713 60C125.539 57.7909 131.743 57.7909 135.569 60L156.354 72C160.18 74.2091 160.18 77.7909 156.354 80L135.569 92C131.743 94.2091 125.539 94.2091 121.713 92L100.928 80C97.102 77.7909 97.102 74.2091 100.928 72L121.713 60Z" fill="#FF3300"/>
<rect width="24" height="20" transform="matrix(0.866025 0.5 0 1 100.928 80)" fill="#CC2900"/>
<rect width="24" height="20" transform="matrix(0.866025 -0.5 0 1 135.569 92)" fill="#991F00"/>
<path d="M98.0583 76C98.0583 77.5621 99.155 78.9763 100.928 80V100C99.155 98.9763 98.0583 97.5621 98.0583 96V76Z" fill="#CC2900"/>
<path d="M121.713 92C125.539 94.2091 131.743 94.2091 135.569 92V112C131.743 114.209 125.539 114.209 121.713 112V92Z" fill="#991F00"/>
<path d="M159.224 76C159.224 77.5621 158.127 78.9763 156.354 80V100C158.127 98.9763 159.224 97.5621 159.224 96V76Z" fill="#991F00"/>
<rect width="30" height="30" transform="matrix(0.866025 0.5 -0.866025 0.5 128.981 40)" fill="white"/>
<rect width="30" height="20" transform="matrix(0.866025 0.5 0 1 103 55)" fill="#D9D9D9"/>
<rect width="30" height="20" transform="matrix(0.866025 -0.5 0 1 128.981 70)" fill="#B3B3B3"/>
<path d="M121.053 21C124.879 18.7909 131.083 18.7909 134.909 21L147.033 28C150.86 30.2091 150.86 33.7909 147.033 36L134.909 43C131.083 45.2091 124.879 45.2091 121.053 43L108.928 36C105.102 33.7909 105.102 30.2091 108.928 28L121.053 21Z" fill="#FF3300"/>
<rect width="14" height="20" transform="matrix(0.866025 0.5 0 1 108.928 36)" fill="#CC2900"/>
<rect width="14" height="20" transform="matrix(0.866025 -0.5 0 1 134.909 43)" fill="#991F00"/>
<path d="M106.058 32C106.058 33.5621 107.155 34.9763 108.928 36V56C107.155 54.9763 106.058 53.5621 106.058 52V32Z" fill="#CC2900"/>
<path d="M121.052 43C124.879 45.2091 131.083 45.2091 134.909 43V63C131.083 65.2091 124.879 65.2091 121.052 63V43Z" fill="#991F00"/>
<path d="M149.903 32C149.903 33.5621 148.806 34.9763 147.033 36V56C148.806 54.9763 149.903 53.5621 149.903 52V32Z" fill="#991F00"/>
<rect width="20" height="20" transform="matrix(0.866025 0.5 -0.866025 0.5 128.321 0)" fill="white"/>
<rect width="20" height="20" transform="matrix(0.866025 0.5 0 1 111 10)" fill="#D9D9D9"/>
<rect width="20" height="20" transform="matrix(0.866025 -0.5 0 1 128.321 20)" fill="#B3B3B3"/>
</svg>
