<svg width="100" height="208" viewBox="0 0 100 208" fill="none" xmlns="http://www.w3.org/2000/svg">
<rect width="100" height="15" transform="matrix(0.866025 0.5 -0.866025 0.5 12.9902 0)" fill="#A1887F"/>
<rect width="100" height="150" transform="matrix(0.866025 0.5 0 1 0 7.5)" fill="#4E342E"/>
<rect width="15" height="150" transform="matrix(0.866025 -0.5 0 1 86.6025 57.5)" fill="#795548"/>
<rect width="5.05868" height="7.08215" transform="matrix(0.85598 0.517009 -0.85598 0.517009 21.0625 29)" fill="#B0BEC5"/>
<rect width="5.05868" height="32.4308" transform="matrix(0.85598 0.517009 0 1 15 32.6615)" fill="#ECEFF1"/>
<rect width="7.08215" height="32.4308" transform="matrix(0.85598 -0.517009 0 1 19.3301 35.2769)" fill="#B0BEC5"/>
<rect width="15.176" height="7.08215" transform="matrix(0.85598 0.517009 -0.85598 0.517009 25.0625 44.6922)" fill="#B0BEC5"/>
<rect width="15.176" height="5.23077" transform="matrix(0.85598 0.517009 0 1 19 48.3538)" fill="#ECEFF1"/>
<rect width="7.08215" height="5.23077" transform="matrix(0.85598 -0.517009 0 1 31.9902 56.1999)" fill="#B0BEC5"/>
<rect width="15.176" height="7.08215" transform="matrix(0.85598 0.517009 -0.85598 0.517009 25.3926 31.6153)" fill="#B0BEC5"/>
<rect width="15.176" height="5.23077" transform="matrix(0.85598 0.517009 0 1 19.3301 35.2768)" fill="#ECEFF1"/>
<rect width="7.08215" height="5.23077" transform="matrix(0.85598 -0.517009 0 1 32.3203 43.123)" fill="#B0BEC5"/>
<rect width="5.05868" height="7.08215" transform="matrix(0.85598 0.517009 -0.85598 0.517009 54.3623 67.6033)" fill="#B0BEC5"/>
<rect width="5.05868" height="14.6462" transform="matrix(0.85598 0.517009 0 1 48.3003 71.2649)" fill="#ECEFF1"/>
<rect width="7.08215" height="14.6462" transform="matrix(0.85598 -0.517009 0 1 52.6304 73.8803)" fill="#B0BEC5"/>
<rect width="5.05868" height="7.08215" transform="matrix(0.85598 0.517009 -0.85598 0.517009 41.0625 41.5537)" fill="#B0BEC5"/>
<rect width="5.05868" height="32.4308" transform="matrix(0.85598 0.517009 0 1 35 45.2153)" fill="#ECEFF1"/>
<rect width="7.08215" height="32.4308" transform="matrix(0.85598 -0.517009 0 1 39.3301 47.8307)" fill="#B0BEC5"/>
<rect width="13.1526" height="7.08215" transform="matrix(0.85598 0.517009 -0.85598 0.517009 45.2949 57.0372)" fill="#B0BEC5"/>
<rect width="13.1526" height="5.23077" transform="matrix(0.85598 0.517009 0 1 39.2324 60.6988)" fill="#ECEFF1"/>
<rect width="7.08215" height="5.23077" transform="matrix(0.85598 -0.517009 0 1 50.4907 67.4988)" fill="#B0BEC5"/>
<rect width="13.1526" height="7.08215" transform="matrix(0.85598 0.517009 -0.85598 0.517009 45.3252 44.1692)" fill="#B0BEC5"/>
<rect width="13.1526" height="5.23077" transform="matrix(0.85598 0.517009 0 1 39.2627 47.8307)" fill="#ECEFF1"/>
<rect width="7.08215" height="5.23077" transform="matrix(0.85598 -0.517009 0 1 50.521 54.6307)" fill="#B0BEC5"/>
<rect width="5.05868" height="7.08215" transform="matrix(0.85598 0.517009 -0.85598 0.517009 56.5645 54.0024)" fill="#B0BEC5"/>
<rect width="5.05868" height="10.4615" transform="matrix(0.85598 0.517009 0 1 50.502 57.6639)" fill="#ECEFF1"/>
<rect width="7.08215" height="10.4615" transform="matrix(0.85598 -0.517009 0 1 54.832 60.2793)" fill="#B0BEC5"/>
<rect width="5.05868" height="7.08215" transform="matrix(0.85598 0.517009 -0.85598 0.517009 67.0625 58.2924)" fill="#B0BEC5"/>
<rect width="5.05868" height="32.4308" transform="matrix(0.85598 0.517009 0 1 61 61.9539)" fill="#ECEFF1"/>
<rect width="7.08215" height="32.4308" transform="matrix(0.85598 -0.517009 0 1 65.3301 64.5693)" fill="#B0BEC5"/>
</svg>
