<svg width="100" height="208" viewBox="0 0 100 208" fill="none" xmlns="http://www.w3.org/2000/svg">
<rect width="100" height="15" transform="matrix(0.866025 0.5 -0.866025 0.5 12.9902 0)" fill="#A1887F"/>
<rect width="100" height="150" transform="matrix(0.866025 0.5 0 1 0 7.5)" fill="#4E342E"/>
<rect width="15" height="150" transform="matrix(0.866025 -0.5 0 1 86.6025 57.5)" fill="#795548"/>
<rect width="5" height="7" transform="matrix(0.866025 0.5 -0.866025 0.5 9.0625 29)" fill="#B0BEC5"/>
<rect width="5" height="30" transform="matrix(0.866025 0.5 0 1 3 32.5)" fill="#ECEFF1"/>
<rect width="7" height="30" transform="matrix(0.866025 -0.5 0 1 7.33008 35)" fill="#B0BEC5"/>
<rect width="5" height="7" transform="matrix(0.866025 0.5 -0.866025 0.5 13.0625 34)" fill="#B0BEC5"/>
<rect width="5" height="5" transform="matrix(0.866025 0.5 0 1 7 37.5)" fill="#ECEFF1"/>
<rect width="7" height="5" transform="matrix(0.866025 -0.5 0 1 11.3301 40)" fill="#B0BEC5"/>
<rect width="5" height="7" transform="matrix(0.866025 0.5 -0.866025 0.5 13.0625 34)" fill="#B0BEC5"/>
<rect width="5" height="5" transform="matrix(0.866025 0.5 0 1 7 37.5)" fill="#ECEFF1"/>
<rect width="7" height="5" transform="matrix(0.866025 -0.5 0 1 11.3301 40)" fill="#B0BEC5"/>
<rect width="5" height="7" transform="matrix(0.866025 0.5 -0.866025 0.5 17.3623 40.1002)" fill="#B0BEC5"/>
<rect width="5" height="5" transform="matrix(0.866025 0.5 0 1 11.2998 43.6002)" fill="#ECEFF1"/>
<rect width="7" height="5" transform="matrix(0.866025 -0.5 0 1 15.6299 46.1002)" fill="#B0BEC5"/>
<rect width="5" height="7" transform="matrix(0.866025 0.5 -0.866025 0.5 21.5625 39.3999)" fill="#B0BEC5"/>
<rect width="5" height="5" transform="matrix(0.866025 0.5 0 1 15.5 42.8999)" fill="#ECEFF1"/>
<rect width="7" height="5" transform="matrix(0.866025 -0.5 0 1 19.8301 45.3999)" fill="#B0BEC5"/>
<rect width="5" height="7" transform="matrix(0.866025 0.5 -0.866025 0.5 25.0625 36.2)" fill="#B0BEC5"/>
<rect width="5" height="30" transform="matrix(0.866025 0.5 0 1 19 39.7)" fill="#ECEFF1"/>
<rect width="7" height="30" transform="matrix(0.866025 -0.5 0 1 23.3301 42.2)" fill="#B0BEC5"/>
<rect width="5" height="7" transform="matrix(0.866025 0.5 -0.866025 0.5 35.0625 44.7001)" fill="#B0BEC5"/>
<rect width="5" height="25" transform="matrix(0.866025 0.5 0 1 29 48.2001)" fill="#ECEFF1"/>
<rect width="7" height="25" transform="matrix(0.866025 -0.5 0 1 33.3301 50.7001)" fill="#B0BEC5"/>
<rect width="15" height="7" transform="matrix(0.866025 0.5 -0.866025 0.5 39.3623 69.2)" fill="#B0BEC5"/>
<rect width="15" height="5" transform="matrix(0.866025 0.5 0 1 33.2998 72.7)" fill="#ECEFF1"/>
<rect width="7" height="5" transform="matrix(0.866025 -0.5 0 1 46.29 80.2)" fill="#B0BEC5"/>
<rect width="15" height="7" transform="matrix(0.866025 0.5 -0.866025 0.5 39.0625 43)" fill="#B0BEC5"/>
<rect width="15" height="5" transform="matrix(0.866025 0.5 0 1 33 46.5)" fill="#ECEFF1"/>
<rect width="7" height="5" transform="matrix(0.866025 -0.5 0 1 45.9902 54)" fill="#B0BEC5"/>
<rect width="5" height="7" transform="matrix(0.866025 0.5 -0.866025 0.5 52.062 53.7001)" fill="#B0BEC5"/>
<rect width="5" height="25" transform="matrix(0.866025 0.5 0 1 46 57.2001)" fill="#ECEFF1"/>
<rect width="7" height="25" transform="matrix(0.866025 -0.5 0 1 50.3301 59.7001)" fill="#B0BEC5"/>
<rect width="5" height="7" transform="matrix(0.866025 0.5 -0.866025 0.5 62.062 59)" fill="#B0BEC5"/>
<rect width="5" height="30" transform="matrix(0.866025 0.5 0 1 56 62.5)" fill="#ECEFF1"/>
<rect width="7" height="30" transform="matrix(0.866025 -0.5 0 1 60.3301 65)" fill="#B0BEC5"/>
<rect width="2" height="7" transform="matrix(0.866025 0.5 -0.866025 0.5 65.9619 61.2)" fill="#B0BEC5"/>
<rect width="2" height="5" transform="matrix(0.866025 0.5 0 1 59.8999 64.7)" fill="#ECEFF1"/>
<rect width="7" height="5" transform="matrix(0.866025 -0.5 0 1 61.6318 65.7)" fill="#B0BEC5"/>
<rect width="2" height="7" transform="matrix(0.866025 0.5 -0.866025 0.5 67.6621 64.0997)" fill="#B0BEC5"/>
<rect width="2" height="5" transform="matrix(0.866025 0.5 0 1 61.6001 67.5997)" fill="#ECEFF1"/>
<rect width="7" height="5" transform="matrix(0.866025 -0.5 0 1 63.332 68.5997)" fill="#B0BEC5"/>
<rect width="2" height="7" transform="matrix(0.866025 0.5 -0.866025 0.5 69.3618 67.6001)" fill="#B0BEC5"/>
<rect width="2" height="5" transform="matrix(0.866025 0.5 0 1 63.2998 71.1001)" fill="#ECEFF1"/>
<rect width="7" height="5" transform="matrix(0.866025 -0.5 0 1 65.0317 72.1001)" fill="#B0BEC5"/>
<rect width="2" height="7" transform="matrix(0.866025 0.5 -0.866025 0.5 71.062 70.4999)" fill="#B0BEC5"/>
<rect width="2" height="5" transform="matrix(0.866025 0.5 0 1 65 73.9999)" fill="#ECEFF1"/>
<rect width="7" height="5" transform="matrix(0.866025 -0.5 0 1 66.7319 74.9999)" fill="#B0BEC5"/>
<rect width="2" height="7" transform="matrix(0.866025 0.5 -0.866025 0.5 72.6621 73.7001)" fill="#B0BEC5"/>
<rect width="2" height="5" transform="matrix(0.866025 0.5 0 1 66.6001 77.2001)" fill="#ECEFF1"/>
<rect width="7" height="5" transform="matrix(0.866025 -0.5 0 1 68.332 78.2001)" fill="#B0BEC5"/>
<rect width="2" height="7" transform="matrix(0.866025 0.5 -0.866025 0.5 74.3618 77.2004)" fill="#B0BEC5"/>
<rect width="2" height="5" transform="matrix(0.866025 0.5 0 1 68.2998 80.7004)" fill="#ECEFF1"/>
<rect width="7" height="5" transform="matrix(0.866025 -0.5 0 1 70.0317 81.7004)" fill="#B0BEC5"/>
<rect width="2" height="7" transform="matrix(0.866025 0.5 -0.866025 0.5 76.062 80.1002)" fill="#B0BEC5"/>
<rect width="2" height="5" transform="matrix(0.866025 0.5 0 1 70 83.6002)" fill="#ECEFF1"/>
<rect width="7" height="5" transform="matrix(0.866025 -0.5 0 1 71.7319 84.6002)" fill="#B0BEC5"/>
<rect width="5" height="7" transform="matrix(0.866025 0.5 -0.866025 0.5 77.7622 64.2999)" fill="#B0BEC5"/>
<rect width="5" height="30" transform="matrix(0.866025 0.5 0 1 71.7002 67.7999)" fill="#ECEFF1"/>
<rect width="7" height="30" transform="matrix(0.866025 -0.5 0 1 76.0303 70.2999)" fill="#B0BEC5"/>
</svg>
