<svg width="100" height="208" viewBox="0 0 100 208" fill="none" xmlns="http://www.w3.org/2000/svg">
<rect width="100" height="15" transform="matrix(0.866025 0.5 -0.866025 0.5 12.9902 0)" fill="#A1887F"/>
<rect width="100" height="150" transform="matrix(0.866025 0.5 0 1 0 7.5)" fill="#4E342E"/>
<rect width="15" height="150" transform="matrix(0.866025 -0.5 0 1 86.6025 57.5)" fill="#795548"/>
<rect width="5" height="7" transform="matrix(0.866025 0.5 -0.866025 0.5 10.062 44.2991)" fill="#B0BEC5"/>
<rect width="5" height="3" transform="matrix(0.866025 0.5 0 1 4 47.7991)" fill="#ECEFF1"/>
<rect width="7" height="3" transform="matrix(0.866025 -0.5 0 1 8.33008 50.2991)" fill="#B0BEC5"/>
<rect width="13" height="7" transform="matrix(0.866025 0.5 -0.866025 0.5 14.3618 48.2996)" fill="#B0BEC5"/>
<rect width="13" height="5" transform="matrix(0.866025 0.5 0 1 8.2998 51.7996)" fill="#ECEFF1"/>
<rect width="7" height="5" transform="matrix(0.866025 -0.5 0 1 19.5581 58.2996)" fill="#B0BEC5"/>
<rect width="5" height="7" transform="matrix(0.866025 0.5 -0.866025 0.5 10.062 25.2986)" fill="#B0BEC5"/>
<rect width="5" height="10" transform="matrix(0.866025 0.5 0 1 4 28.7986)" fill="#ECEFF1"/>
<rect width="7" height="10" transform="matrix(0.866025 -0.5 0 1 8.33008 31.2986)" fill="#B0BEC5"/>
<rect width="13" height="7" transform="matrix(0.866025 0.5 -0.866025 0.5 14.2944 35.9999)" fill="#B0BEC5"/>
<rect width="13" height="5" transform="matrix(0.866025 0.5 0 1 8.23242 39.4999)" fill="#ECEFF1"/>
<rect width="7" height="5" transform="matrix(0.866025 -0.5 0 1 19.4907 45.9999)" fill="#B0BEC5"/>
<rect width="13" height="7" transform="matrix(0.866025 0.5 -0.866025 0.5 14.3247 23)" fill="#B0BEC5"/>
<rect width="13" height="5" transform="matrix(0.866025 0.5 0 1 8.2627 26.5)" fill="#ECEFF1"/>
<rect width="7" height="5" transform="matrix(0.866025 -0.5 0 1 19.521 33)" fill="#B0BEC5"/>
<rect width="5" height="7" transform="matrix(0.866025 0.5 -0.866025 0.5 25.564 32.4993)" fill="#B0BEC5"/>
<rect width="5" height="3" transform="matrix(0.866025 0.5 0 1 19.502 35.9993)" fill="#ECEFF1"/>
<rect width="7" height="3" transform="matrix(0.866025 -0.5 0 1 23.832 38.4993)" fill="#B0BEC5"/>
<rect width="5" height="7" transform="matrix(0.866025 0.5 -0.866025 0.5 25.562 45.8992)" fill="#B0BEC5"/>
<rect width="5" height="10" transform="matrix(0.866025 0.5 0 1 19.5 49.3992)" fill="#ECEFF1"/>
<rect width="7" height="10" transform="matrix(0.866025 -0.5 0 1 23.8301 51.8992)" fill="#B0BEC5"/>
<rect width="5" height="7" transform="matrix(0.866025 0.5 -0.866025 0.5 35.062 39.2002)" fill="#B0BEC5"/>
<rect width="5" height="25" transform="matrix(0.866025 0.5 0 1 29 42.7002)" fill="#ECEFF1"/>
<rect width="7" height="25" transform="matrix(0.866025 -0.5 0 1 33.3301 45.2002)" fill="#B0BEC5"/>
<rect width="15" height="7" transform="matrix(0.866025 0.5 -0.866025 0.5 39.2622 51.0034)" fill="#B0BEC5"/>
<rect width="15" height="5" transform="matrix(0.866025 0.5 0 1 33.2002 54.5034)" fill="#ECEFF1"/>
<rect width="7" height="5" transform="matrix(0.866025 -0.5 0 1 46.1904 62.0034)" fill="#B0BEC5"/>
<rect width="15" height="7" transform="matrix(0.866025 0.5 -0.866025 0.5 39.2622 38)" fill="#B0BEC5"/>
<rect width="15" height="5" transform="matrix(0.866025 0.5 0 1 33.2002 41.5)" fill="#ECEFF1"/>
<rect width="7" height="5" transform="matrix(0.866025 -0.5 0 1 46.1904 49)" fill="#B0BEC5"/>
<rect width="5" height="7" transform="matrix(0.866025 0.5 -0.866025 0.5 52.2622 48.6001)" fill="#B0BEC5"/>
<rect width="5" height="25" transform="matrix(0.866025 0.5 0 1 46.2002 52.1001)" fill="#ECEFF1"/>
<rect width="7" height="25" transform="matrix(0.866025 -0.5 0 1 50.5303 54.6001)" fill="#B0BEC5"/>
<rect width="5" height="7" transform="matrix(0.866025 0.5 -0.866025 0.5 71.062 58.6245)" fill="#B0BEC5"/>
<rect width="5" height="30" transform="matrix(0.866025 0.5 0 1 65 62.1245)" fill="#ECEFF1"/>
<rect width="7" height="30" transform="matrix(0.866025 -0.5 0 1 69.3301 64.6245)" fill="#B0BEC5"/>
<rect width="20" height="7" transform="matrix(0.866025 0.5 -0.866025 0.5 63.0283 49.2898)" fill="#B0BEC5"/>
<rect width="20" height="5" transform="matrix(0.866025 0.5 -9.77041e-09 1 56.9658 52.7898)" fill="#ECEFF1"/>
<rect width="7" height="5" transform="matrix(0.866025 -0.5 -9.77041e-09 1 74.2861 62.7899)" fill="#B0BEC5"/>
</svg>
