<svg width="100" height="208" viewBox="0 0 100 208" fill="none" xmlns="http://www.w3.org/2000/svg">
<rect width="100" height="15" transform="matrix(0.866025 0.5 -0.866025 0.5 12.9902 0)" fill="#A1887F"/>
<rect width="100" height="150" transform="matrix(0.866025 0.5 0 1 0 7.5)" fill="#4E342E"/>
<rect width="15" height="150" transform="matrix(0.866025 -0.5 0 1 86.6025 57.5)" fill="#795548"/>
<rect width="5" height="7" transform="matrix(0.866025 0.5 -0.866025 0.5 11.062 50.2991)" fill="#B0BEC5"/>
<rect width="5" height="3" transform="matrix(0.866025 0.5 0 1 5 53.7991)" fill="#ECEFF1"/>
<rect width="7" height="3" transform="matrix(0.866025 -0.5 0 1 9.33008 56.2991)" fill="#B0BEC5"/>
<rect width="13" height="7" transform="matrix(0.866025 0.5 -0.866025 0.5 15.3618 54.2996)" fill="#B0BEC5"/>
<rect width="13" height="5" transform="matrix(0.866025 0.5 0 1 9.2998 57.7996)" fill="#ECEFF1"/>
<rect width="7" height="5" transform="matrix(0.866025 -0.5 0 1 20.5581 64.2996)" fill="#B0BEC5"/>
<rect width="5" height="7" transform="matrix(0.866025 0.5 -0.866025 0.5 11.062 31.2986)" fill="#B0BEC5"/>
<rect width="5" height="10" transform="matrix(0.866025 0.5 0 1 5 34.7986)" fill="#ECEFF1"/>
<rect width="7" height="10" transform="matrix(0.866025 -0.5 0 1 9.33008 37.2986)" fill="#B0BEC5"/>
<rect width="13" height="7" transform="matrix(0.866025 0.5 -0.866025 0.5 15.2944 41.9999)" fill="#B0BEC5"/>
<rect width="13" height="5" transform="matrix(0.866025 0.5 0 1 9.23242 45.4999)" fill="#ECEFF1"/>
<rect width="7" height="5" transform="matrix(0.866025 -0.5 0 1 20.4907 51.9999)" fill="#B0BEC5"/>
<rect width="13" height="7" transform="matrix(0.866025 0.5 -0.866025 0.5 15.3247 29)" fill="#B0BEC5"/>
<rect width="13" height="5" transform="matrix(0.866025 0.5 0 1 9.2627 32.5)" fill="#ECEFF1"/>
<rect width="7" height="5" transform="matrix(0.866025 -0.5 0 1 20.521 39)" fill="#B0BEC5"/>
<rect width="5" height="7" transform="matrix(0.866025 0.5 -0.866025 0.5 26.564 38.4993)" fill="#B0BEC5"/>
<rect width="5" height="3" transform="matrix(0.866025 0.5 0 1 20.502 41.9993)" fill="#ECEFF1"/>
<rect width="7" height="3" transform="matrix(0.866025 -0.5 0 1 24.832 44.4993)" fill="#B0BEC5"/>
<rect width="5" height="7" transform="matrix(0.866025 0.5 -0.866025 0.5 26.562 51.8992)" fill="#B0BEC5"/>
<rect width="5" height="10" transform="matrix(0.866025 0.5 0 1 20.5 55.3992)" fill="#ECEFF1"/>
<rect width="7" height="10" transform="matrix(0.866025 -0.5 0 1 24.8301 57.8992)" fill="#B0BEC5"/>
<rect width="5" height="7" transform="matrix(0.866025 0.5 -0.866025 0.5 36.062 42)" fill="#B0BEC5"/>
<rect width="5" height="30" transform="matrix(0.866025 0.5 0 1 30 45.5)" fill="#ECEFF1"/>
<rect width="7" height="30" transform="matrix(0.866025 -0.5 0 1 34.3301 48)" fill="#B0BEC5"/>
<rect width="10" height="7" transform="matrix(0.866025 0.5 -0.866025 0.5 40.1885 69.4067)" fill="#B0BEC5"/>
<rect width="10" height="5" transform="matrix(0.866025 0.5 -9.77041e-09 1 34.126 72.9067)" fill="#ECEFF1"/>
<rect width="7" height="5" transform="matrix(0.866025 -0.5 -9.77041e-09 1 42.7861 77.9067)" fill="#B0BEC5"/>
<rect width="5" height="7" transform="matrix(0.866025 0.5 -0.866025 0.5 48.062 49)" fill="#B0BEC5"/>
<rect width="5" height="30" transform="matrix(0.866025 0.5 0 1 42 52.5)" fill="#ECEFF1"/>
<rect width="7" height="30" transform="matrix(0.866025 -0.5 0 1 46.3301 55)" fill="#B0BEC5"/>
<rect width="5" height="7" transform="matrix(0.866025 0.5 -0.866025 0.5 59.062 56)" fill="#B0BEC5"/>
<rect width="5" height="30" transform="matrix(0.866025 0.5 0 1 53 59.5)" fill="#ECEFF1"/>
<rect width="7" height="30" transform="matrix(0.866025 -0.5 0 1 57.3301 62)" fill="#B0BEC5"/>
<rect width="2" height="7" transform="matrix(0.866025 0.5 -0.866025 0.5 62.9619 58.2)" fill="#B0BEC5"/>
<rect width="2" height="5" transform="matrix(0.866025 0.5 0 1 56.8999 61.7)" fill="#ECEFF1"/>
<rect width="7" height="5" transform="matrix(0.866025 -0.5 0 1 58.6318 62.7)" fill="#B0BEC5"/>
<rect width="2" height="7" transform="matrix(0.866025 0.5 -0.866025 0.5 64.6621 61.0997)" fill="#B0BEC5"/>
<rect width="2" height="5" transform="matrix(0.866025 0.5 0 1 58.6001 64.5997)" fill="#ECEFF1"/>
<rect width="7" height="5" transform="matrix(0.866025 -0.5 0 1 60.332 65.5997)" fill="#B0BEC5"/>
<rect width="2" height="7" transform="matrix(0.866025 0.5 -0.866025 0.5 66.3618 64.6001)" fill="#B0BEC5"/>
<rect width="2" height="5" transform="matrix(0.866025 0.5 0 1 60.2998 68.1001)" fill="#ECEFF1"/>
<rect width="7" height="5" transform="matrix(0.866025 -0.5 0 1 62.0317 69.1001)" fill="#B0BEC5"/>
<rect width="2" height="7" transform="matrix(0.866025 0.5 -0.866025 0.5 68.062 67.4999)" fill="#B0BEC5"/>
<rect width="2" height="5" transform="matrix(0.866025 0.5 0 1 62 70.9999)" fill="#ECEFF1"/>
<rect width="7" height="5" transform="matrix(0.866025 -0.5 0 1 63.7319 71.9999)" fill="#B0BEC5"/>
<rect width="2" height="7" transform="matrix(0.866025 0.5 -0.866025 0.5 69.6621 70.7001)" fill="#B0BEC5"/>
<rect width="2" height="5" transform="matrix(0.866025 0.5 0 1 63.6001 74.2001)" fill="#ECEFF1"/>
<rect width="7" height="5" transform="matrix(0.866025 -0.5 0 1 65.332 75.2001)" fill="#B0BEC5"/>
<rect width="2" height="7" transform="matrix(0.866025 0.5 -0.866025 0.5 71.3618 74.2004)" fill="#B0BEC5"/>
<rect width="2" height="5" transform="matrix(0.866025 0.5 0 1 65.2998 77.7004)" fill="#ECEFF1"/>
<rect width="7" height="5" transform="matrix(0.866025 -0.5 0 1 67.0317 78.7004)" fill="#B0BEC5"/>
<rect width="2" height="7" transform="matrix(0.866025 0.5 -0.866025 0.5 73.062 77.1002)" fill="#B0BEC5"/>
<rect width="2" height="5" transform="matrix(0.866025 0.5 0 1 67 80.6002)" fill="#ECEFF1"/>
<rect width="7" height="5" transform="matrix(0.866025 -0.5 0 1 68.7319 81.6002)" fill="#B0BEC5"/>
<rect width="5" height="7" transform="matrix(0.866025 0.5 -0.866025 0.5 74.7622 61.2999)" fill="#B0BEC5"/>
<rect width="5" height="30" transform="matrix(0.866025 0.5 0 1 68.7002 64.7999)" fill="#ECEFF1"/>
<rect width="7" height="30" transform="matrix(0.866025 -0.5 0 1 73.0303 67.2999)" fill="#B0BEC5"/>
</svg>
