<svg width="100" height="208" viewBox="0 0 100 208" fill="none" xmlns="http://www.w3.org/2000/svg">
<rect width="100" height="15" transform="matrix(0.866025 0.5 -0.866025 0.5 12.9902 0)" fill="#A1887F"/>
<rect width="100" height="150" transform="matrix(0.866025 0.5 0 1 0 7.5)" fill="#4E342E"/>
<rect width="15" height="150" transform="matrix(0.866025 -0.5 0 1 86.6025 57.5)" fill="#795548"/>
<rect width="5" height="7" transform="matrix(0.866025 0.5 -0.866025 0.5 17.9634 32.8245)" fill="#B0BEC5"/>
<rect width="5" height="28" transform="matrix(0.866025 0.5 0 1 11.9014 36.3245)" fill="#ECEFF1"/>
<rect width="7" height="28" transform="matrix(0.866025 -0.5 0 1 16.2314 38.8245)" fill="#B0BEC5"/>
<rect width="20" height="7" transform="matrix(0.866025 0.5 -0.866025 0.5 9.93018 23.4898)" fill="#B0BEC5"/>
<rect width="20" height="5" transform="matrix(0.866025 0.5 -9.77041e-09 1 3.86768 26.9898)" fill="#ECEFF1"/>
<rect width="7" height="5" transform="matrix(0.866025 -0.5 -9.77041e-09 1 21.188 36.9899)" fill="#B0BEC5"/>
<rect width="5" height="7" transform="matrix(0.866025 0.5 -0.866025 0.5 58.9639 49.2)" fill="#B0BEC5"/>
<rect width="5" height="30" transform="matrix(0.866025 0.5 0 1 52.9019 52.7)" fill="#ECEFF1"/>
<rect width="7" height="30" transform="matrix(0.866025 -0.5 0 1 57.2319 55.2)" fill="#B0BEC5"/>
<rect width="10" height="7" transform="matrix(0.866025 0.5 -0.866025 0.5 63.0903 76.6068)" fill="#B0BEC5"/>
<rect width="10" height="5" transform="matrix(0.866025 0.5 -9.77041e-09 1 57.0278 80.1067)" fill="#ECEFF1"/>
<rect width="7" height="5" transform="matrix(0.866025 -0.5 -9.77041e-09 1 65.688 85.1068)" fill="#B0BEC5"/>
<rect width="5" height="7" transform="matrix(0.866025 0.5 -0.866025 0.5 70.9639 56.2)" fill="#B0BEC5"/>
<rect width="5" height="30" transform="matrix(0.866025 0.5 0 1 64.9019 59.7)" fill="#ECEFF1"/>
<rect width="7" height="30" transform="matrix(0.866025 -0.5 0 1 69.2319 62.2)" fill="#B0BEC5"/>
<rect width="5" height="7" transform="matrix(0.866025 0.5 -0.866025 0.5 30.9639 36.2)" fill="#B0BEC5"/>
<rect width="5" height="30" transform="matrix(0.866025 0.5 0 1 24.9019 39.7)" fill="#ECEFF1"/>
<rect width="7" height="30" transform="matrix(0.866025 -0.5 0 1 29.2319 42.2)" fill="#B0BEC5"/>
<rect width="15" height="7" transform="matrix(0.866025 0.5 -0.866025 0.5 34.6133 50.9902)" fill="#B0BEC5"/>
<rect width="15" height="5" transform="matrix(0.866025 0.5 -9.77041e-09 1 28.5508 54.4902)" fill="#ECEFF1"/>
<rect width="7" height="5" transform="matrix(0.866025 -0.5 -9.77041e-09 1 41.541 61.9901)" fill="#B0BEC5"/>
<rect width="5" height="7" transform="matrix(0.866025 0.5 -0.866025 0.5 46.9639 44.2)" fill="#B0BEC5"/>
<rect width="5" height="30" transform="matrix(0.866025 0.5 0 1 40.9019 47.7)" fill="#ECEFF1"/>
<rect width="7" height="30" transform="matrix(0.866025 -0.5 0 1 45.2319 50.2)" fill="#B0BEC5"/>
</svg>
