<svg width="100" height="208" viewBox="0 0 100 208" fill="none" xmlns="http://www.w3.org/2000/svg">
<rect width="100" height="15" transform="matrix(0.866025 0.5 -0.866025 0.5 12.9902 0)" fill="#A1887F"/>
<rect width="100" height="150" transform="matrix(0.866025 0.5 0 1 0 7.5)" fill="#4E342E"/>
<rect width="15" height="150" transform="matrix(0.866025 -0.5 0 1 86.6025 57.5)" fill="#795548"/>
<rect width="5" height="7" transform="matrix(0.866025 0.5 -0.866025 0.5 16.0615 34.6245)" fill="#B0BEC5"/>
<rect width="5" height="28" transform="matrix(0.866025 0.5 0 1 9.99951 38.1245)" fill="#ECEFF1"/>
<rect width="7" height="28" transform="matrix(0.866025 -0.5 0 1 14.3296 40.6245)" fill="#B0BEC5"/>
<rect width="20" height="7" transform="matrix(0.866025 0.5 -0.866025 0.5 8.02832 25.2898)" fill="#B0BEC5"/>
<rect width="20" height="5" transform="matrix(0.866025 0.5 -9.77041e-09 1 1.96582 28.7898)" fill="#ECEFF1"/>
<rect width="7" height="5" transform="matrix(0.866025 -0.5 -9.77041e-09 1 19.2861 38.7899)" fill="#B0BEC5"/>
<rect width="5" height="7" transform="matrix(0.866025 0.5 -0.866025 0.5 31.062 39)" fill="#B0BEC5"/>
<rect width="5" height="30" transform="matrix(0.866025 0.5 0 1 25 42.5)" fill="#ECEFF1"/>
<rect width="7" height="30" transform="matrix(0.866025 -0.5 0 1 29.3301 45)" fill="#B0BEC5"/>
<rect width="10" height="7" transform="matrix(0.866025 0.5 -0.866025 0.5 35.1885 66.4067)" fill="#B0BEC5"/>
<rect width="10" height="5" transform="matrix(0.866025 0.5 -9.77041e-09 1 29.126 69.9067)" fill="#ECEFF1"/>
<rect width="7" height="5" transform="matrix(0.866025 -0.5 -9.77041e-09 1 37.7861 74.9067)" fill="#B0BEC5"/>
<rect width="5" height="7" transform="matrix(0.866025 0.5 -0.866025 0.5 43.062 46)" fill="#B0BEC5"/>
<rect width="5" height="30" transform="matrix(0.866025 0.5 0 1 37 49.5)" fill="#ECEFF1"/>
<rect width="7" height="30" transform="matrix(0.866025 -0.5 0 1 41.3301 52)" fill="#B0BEC5"/>
<rect width="5" height="7" transform="matrix(0.866025 0.5 -0.866025 0.5 57.062 51)" fill="#B0BEC5"/>
<rect width="5" height="31" transform="matrix(0.866025 0.5 0 1 51 54.5)" fill="#ECEFF1"/>
<rect width="7" height="31" transform="matrix(0.866025 -0.5 0 1 55.3301 57)" fill="#B0BEC5"/>
<rect width="15" height="7" transform="matrix(0.866025 0.5 -0.866025 0.5 61.062 66)" fill="#B0BEC5"/>
<rect width="15" height="5" transform="matrix(0.866025 0.5 0 1 55 69.5)" fill="#ECEFF1"/>
<rect width="7" height="5" transform="matrix(0.866025 -0.5 0 1 67.9902 77)" fill="#B0BEC5"/>
<rect width="15" height="7" transform="matrix(0.866025 0.5 -0.866025 0.5 61.062 79.3)" fill="#B0BEC5"/>
<rect width="15" height="5" transform="matrix(0.866025 0.5 0 1 55 82.8)" fill="#ECEFF1"/>
<rect width="7" height="5" transform="matrix(0.866025 -0.5 0 1 67.9902 90.3)" fill="#B0BEC5"/>
<rect width="15" height="7" transform="matrix(0.866025 0.5 -0.866025 0.5 61.3921 53.5)" fill="#B0BEC5"/>
<rect width="15" height="5" transform="matrix(0.866025 0.5 0 1 55.3301 57)" fill="#ECEFF1"/>
<rect width="7" height="5" transform="matrix(0.866025 -0.5 0 1 68.3203 64.5)" fill="#B0BEC5"/>
</svg>
