<svg width="100" height="208" viewBox="0 0 100 208" fill="none" xmlns="http://www.w3.org/2000/svg">
<rect width="100" height="15" transform="matrix(0.866025 0.5 -0.866025 0.5 12.9902 0)" fill="#A1887F"/>
<rect width="100" height="150" transform="matrix(0.866025 0.5 0 1 0 7.5)" fill="#4E342E"/>
<rect width="15" height="150" transform="matrix(0.866025 -0.5 0 1 86.6025 57.5)" fill="#795548"/>
<rect width="5" height="7" transform="matrix(0.866025 0.5 -0.866025 0.5 36.062 39)" fill="#B0BEC5"/>
<rect width="5" height="31" transform="matrix(0.866025 0.5 0 1 30 42.5)" fill="#ECEFF1"/>
<rect width="7" height="31" transform="matrix(0.866025 -0.5 0 1 34.3301 45)" fill="#B0BEC5"/>
<rect width="15" height="7" transform="matrix(0.866025 0.5 -0.866025 0.5 40.3618 53.6001)" fill="#B0BEC5"/>
<rect width="15" height="5" transform="matrix(0.866025 0.5 0 1 34.2998 57.1001)" fill="#ECEFF1"/>
<rect width="7" height="5" transform="matrix(0.866025 -0.5 0 1 47.29 64.6001)" fill="#B0BEC5"/>
<rect width="15" height="7" transform="matrix(0.866025 0.5 -0.866025 0.5 40.3618 67.5)" fill="#B0BEC5"/>
<rect width="15" height="5" transform="matrix(0.866025 0.5 0 1 34.2998 71)" fill="#ECEFF1"/>
<rect width="7" height="5" transform="matrix(0.866025 -0.5 0 1 47.29 78.5)" fill="#B0BEC5"/>
<rect width="15" height="7" transform="matrix(0.866025 0.5 -0.866025 0.5 40.3921 41.5)" fill="#B0BEC5"/>
<rect width="15" height="5" transform="matrix(0.866025 0.5 0 1 34.3301 45)" fill="#ECEFF1"/>
<rect width="7" height="5" transform="matrix(0.866025 -0.5 0 1 47.3203 52.5)" fill="#B0BEC5"/>
<rect width="5" height="7" transform="matrix(0.866025 0.5 -0.866025 0.5 62.062 54)" fill="#B0BEC5"/>
<rect width="5" height="31" transform="matrix(0.866025 0.5 0 1 56 57.5)" fill="#ECEFF1"/>
<rect width="7" height="31" transform="matrix(0.866025 -0.5 0 1 60.3301 60)" fill="#B0BEC5"/>
<rect width="15" height="7" transform="matrix(0.866025 0.5 -0.866025 0.5 66.3618 82.4999)" fill="#B0BEC5"/>
<rect width="15" height="5" transform="matrix(0.866025 0.5 0 1 60.2998 85.9999)" fill="#ECEFF1"/>
<rect width="7" height="5" transform="matrix(0.866025 -0.5 0 1 73.29 93.4999)" fill="#B0BEC5"/>
<rect width="15" height="7" transform="matrix(0.866025 0.5 -0.866025 0.5 66.062 56.2999)" fill="#B0BEC5"/>
<rect width="15" height="5" transform="matrix(0.866025 0.5 0 1 60 59.7999)" fill="#ECEFF1"/>
<rect width="7" height="5" transform="matrix(0.866025 -0.5 0 1 72.9902 67.2999)" fill="#B0BEC5"/>
<rect width="5" height="7" transform="matrix(0.866025 0.5 -0.866025 0.5 79.062 67)" fill="#B0BEC5"/>
<rect width="5" height="25" transform="matrix(0.866025 0.5 0 1 73 70.5)" fill="#ECEFF1"/>
<rect width="7" height="25" transform="matrix(0.866025 -0.5 0 1 77.3301 73)" fill="#B0BEC5"/>
<rect width="5" height="7" transform="matrix(0.866025 0.5 -0.866025 0.5 6.06201 25)" fill="#B0BEC5"/>
<rect width="5" height="25" transform="matrix(0.866025 0.5 0 1 0 28.5)" fill="#ECEFF1"/>
<rect width="7" height="25" transform="matrix(0.866025 -0.5 0 1 4.33008 31)" fill="#B0BEC5"/>
<rect width="5" height="7" transform="matrix(0.866025 0.5 -0.866025 0.5 10.062 47.9003)" fill="#B0BEC5"/>
<rect width="5" height="10" transform="matrix(0.866025 0.5 0 1 4 51.4003)" fill="#ECEFF1"/>
<rect width="7" height="10" transform="matrix(0.866025 -0.5 0 1 8.33008 53.9003)" fill="#B0BEC5"/>
<rect width="5" height="7" transform="matrix(0.866025 0.5 -0.866025 0.5 14.3618 42)" fill="#B0BEC5"/>
<rect width="5" height="15" transform="matrix(0.866025 0.5 0 1 8.2998 45.5)" fill="#ECEFF1"/>
<rect width="7" height="15" transform="matrix(0.866025 -0.5 0 1 12.6299 48)" fill="#B0BEC5"/>
<rect width="5" height="7" transform="matrix(0.866025 0.5 -0.866025 0.5 18.6616 52.4996)" fill="#B0BEC5"/>
<rect width="5" height="10" transform="matrix(0.866025 0.5 0 1 12.5996 55.9996)" fill="#ECEFF1"/>
<rect width="7" height="10" transform="matrix(0.866025 -0.5 0 1 16.9297 58.4996)" fill="#B0BEC5"/>
<rect width="5" height="7" transform="matrix(0.866025 0.5 -0.866025 0.5 22.9619 34.2999)" fill="#B0BEC5"/>
<rect width="5" height="25" transform="matrix(0.866025 0.5 0 1 16.8999 37.7999)" fill="#ECEFF1"/>
<rect width="7" height="25" transform="matrix(0.866025 -0.5 0 1 21.23 40.2999)" fill="#B0BEC5"/>
</svg>
