<svg width="139" height="153" viewBox="0 0 139 153" fill="none" xmlns="http://www.w3.org/2000/svg">
<rect width="20" height="20" transform="matrix(0.866025 0.5 -0.866025 0.5 69.3206 53)" fill="#4D4D4D"/>
<rect width="20" height="80" transform="matrix(0.866025 0.5 0 1 52 63)" fill="#262626"/>
<rect width="20" height="80" transform="matrix(0.866025 -0.5 0 1 69.3206 73)" fill="black"/>
<mask id="mask0_2_3352" style="mask-type:alpha" maskUnits="userSpaceOnUse" x="0" y="26" width="139" height="81">
<rect width="80" height="80" transform="matrix(0.866025 -0.5 -0.866025 -0.5 69.282 106.702)" fill="#D9D9D9"/>
</mask>
<g mask="url(#mask0_2_3352)">
<rect width="80" height="40" transform="matrix(0.866025 0.5 0 -1 69.282 66.7017)" fill="#4D4D4D"/>
<rect width="80" height="40" transform="matrix(0.866025 -0.5 0 -1 0 106.702)" fill="#262626"/>
<rect width="80" height="80" transform="matrix(0.866025 -0.5 -0.866025 -0.5 69.282 146.702)" fill="black"/>
</g>
<rect width="60" height="60" transform="matrix(0.866025 0.5 -0.866025 0.5 68.9614 8.19336)" fill="#FDEFBD"/>
<rect width="60" height="30" transform="matrix(0.866025 0.5 0 1 17 38.1934)" fill="#FCE593"/>
<rect width="60" height="30" transform="matrix(0.866025 -0.5 0 1 68.9614 68.1934)" fill="#E1C665"/>
<mask id="mask1_2_3352" style="mask-type:alpha" maskUnits="userSpaceOnUse" x="0" y="0" width="139" height="80">
<rect width="80" height="80" transform="matrix(0.866025 0.5 -0.866025 0.5 69.282 0)" fill="#D9D9D9"/>
</mask>
<g mask="url(#mask1_2_3352)">
<rect width="80" height="40" transform="matrix(0.866025 -0.5 0 1 69.282 40)" fill="#4D4D4D"/>
<rect width="80" height="40" transform="matrix(0.866025 0.5 0 1 0 0)" fill="#262626"/>
<rect width="80" height="80" transform="matrix(0.866025 0.5 -0.866025 0.5 69.282 -40)" fill="black"/>
</g>
</svg>
